<?xml version="1.0" standalone="no"?>
<!DOCTYPE svg PUBLIC "-//W3C//DTD SVG 20010904//EN"
 "http://www.w3.org/TR/2001/REC-SVG-20010904/DTD/svg10.dtd">
<svg version="1.0" xmlns="http://www.w3.org/2000/svg"
 width="330.000000pt" height="324.000000pt" viewBox="0 0 330.000000 324.000000"
 preserveAspectRatio="xMidYMid meet">

<g transform="translate(0.000000,324.000000) scale(0.100000,-0.100000)"
fill="#000000" stroke="none">
<path d="M1030 3120 c0 -27 5 -50 10 -50 6 0 10 7 10 17 0 14 2 14 21 -3 22
-19 22 -19 10 3 -6 12 -16 25 -21 28 -6 3 -10 17 -10 31 0 13 -4 24 -10 24 -5
0 -10 -22 -10 -50z"/>
<path d="M1230 3155 c0 -8 -9 -15 -19 -15 -22 0 -35 -28 -25 -54 3 -9 17 -16
30 -16 22 0 24 4 24 50 0 28 -2 50 -5 50 -3 0 -5 -7 -5 -15z m-2 -53 c2 -15
-2 -22 -12 -22 -11 0 -16 9 -16 26 0 31 23 28 28 -4z"/>
<path d="M1420 3119 c0 -49 1 -50 28 -47 23 3 27 8 27 33 0 24 -5 31 -23 33
-16 2 -22 8 -18 18 3 8 1 14 -4 14 -6 0 -10 -23 -10 -51z m47 -5 c8 -22 -15
-44 -26 -25 -10 16 -4 41 10 41 5 0 12 -7 16 -16z"/>
<path d="M1508 3163 c7 -3 12 -23 12 -49 0 -36 3 -44 18 -43 10 0 12 3 5 6 -8
3 -13 23 -13 49 0 36 -3 44 -17 43 -11 0 -13 -3 -5 -6z"/>
<path d="M1997 3163 c-9 -9 -9 -91 1 -96 4 -3 7 19 7 49 0 30 0 54 -1 54 0 0
-4 -3 -7 -7z"/>
<path d="M2065 3115 c0 -34 4 -50 10 -44 5 5 9 25 9 44 0 19 -4 39 -9 45 -6 5
-10 -11 -10 -45z"/>
<path d="M1065 3130 c-3 -6 1 -7 9 -4 18 7 21 14 7 14 -6 0 -13 -4 -16 -10z"/>
<path d="M1266 3122 c-10 -30 4 -53 28 -50 31 4 30 62 -1 66 -14 2 -23 -3 -27
-16z m41 -8 c8 -22 -15 -44 -26 -25 -10 16 -4 41 10 41 5 0 12 -7 16 -16z"/>
<path d="M1342 3108 c2 -28 8 -34 31 -36 25 -3 27 -1 27 32 0 20 -4 36 -9 36
-5 0 -7 -8 -5 -17 2 -10 0 -25 -6 -33 -9 -13 -11 -13 -20 0 -6 8 -8 23 -6 33
2 9 0 17 -6 17 -5 0 -8 -15 -6 -32z"/>
<path d="M1579 3124 c-17 -21 0 -48 32 -51 23 -1 23 -1 2 4 -31 6 -29 23 2 23
27 0 32 9 13 28 -16 16 -33 15 -49 -4z m41 -4 c0 -5 -7 -10 -15 -10 -8 0 -15
5 -15 10 0 6 7 10 15 10 8 0 15 -4 15 -10z"/>
<path d="M1740 3125 c0 -9 7 -18 15 -21 20 -8 19 -21 -2 -28 -11 -3 -8 -4 6
-3 31 3 40 27 12 34 -26 7 -27 20 -3 26 13 4 11 5 -5 6 -15 1 -23 -5 -23 -14z"/>
<path d="M1825 3132 c15 -11 12 -46 -5 -54 -9 -4 0 -7 20 -7 19 1 29 3 23 6
-7 2 -13 18 -13 34 0 21 -5 29 -17 29 -10 0 -14 -4 -8 -8z"/>
<path d="M1891 3103 c1 -36 2 -36 8 -9 9 41 31 46 31 7 0 -17 4 -31 9 -31 4 0
7 10 6 23 -1 12 -3 28 -4 35 0 6 -12 12 -26 12 -22 0 -25 -4 -24 -37z"/>
<path d="M1127 3071 c-4 -17 -3 -21 5 -13 5 5 8 16 6 23 -3 8 -7 3 -11 -10z"/>
<path d="M1053 2993 c-8 -30 -5 -64 5 -75 4 -4 7 18 7 48 0 29 -1 54 -2 54 -2
0 -6 -12 -10 -27z"/>
<path d="M1125 2965 c0 -34 4 -50 10 -44 5 5 9 25 9 44 0 19 -4 39 -9 45 -7 6
-10 -11 -10 -45z"/>
<path d="M1600 2994 c-13 -33 -13 -47 3 -67 10 -15 12 -9 12 38 0 30 -1 55 -3
55 -1 0 -7 -12 -12 -26z"/>
<path d="M1675 2965 c0 -29 3 -48 7 -42 4 7 8 26 8 42 0 17 -4 35 -8 42 -4 6
-7 -13 -7 -42z"/>
<path d="M1760 3002 c0 -10 -5 -23 -11 -29 -8 -8 -8 -13 0 -17 6 -4 11 -18 11
-32 0 -16 6 -24 18 -24 13 0 14 2 4 9 -18 11 -18 91 -1 102 11 7 10 9 -3 9
-11 0 -18 -7 -18 -18z"/>
<path d="M1827 3000 c-9 -11 -13 -20 -8 -20 6 0 12 -15 14 -32 l4 -33 1 33 c2
23 7 32 20 33 15 0 14 1 -3 8 -19 8 -19 8 0 19 15 8 16 11 5 12 -9 0 -23 -9
-33 -20z"/>
<path d="M1898 3013 c7 -3 12 -23 12 -49 0 -36 3 -44 18 -43 10 0 12 3 5 6 -8
3 -13 23 -13 49 0 36 -3 44 -17 43 -11 0 -13 -3 -5 -6z"/>
<path d="M2132 2994 c-7 -8 -8 -14 -3 -14 5 0 11 -12 13 -27 2 -18 9 -28 21
-29 12 -1 13 -1 2 3 -22 7 -20 53 3 54 13 0 14 2 2 6 -8 3 -17 9 -20 13 -3 4
-11 2 -18 -6z"/>
<path d="M2287 2965 c-9 -25 -12 -45 -6 -45 5 0 9 5 9 10 0 6 9 10 20 10 11 0
20 -4 20 -10 0 -5 4 -10 9 -10 6 0 3 20 -6 45 -8 25 -19 45 -23 45 -4 0 -15
-20 -23 -45z m33 0 c0 -8 -4 -15 -10 -15 -5 0 -10 7 -10 15 0 8 5 15 10 15 6
0 10 -7 10 -15z"/>
<path d="M804 2976 c-11 -28 1 -51 26 -53 25 -3 25 -3 3 7 -13 5 -23 16 -23
25 0 9 10 20 23 25 l22 9 -23 0 c-12 1 -25 -5 -28 -13z"/>
<path d="M874 2976 c-11 -29 0 -51 26 -51 21 0 25 5 25 30 0 24 -5 31 -23 33
-13 2 -24 -3 -28 -12z m43 -12 c8 -21 -13 -42 -28 -27 -13 13 -5 43 11 43 6 0
13 -7 17 -16z"/>
<path d="M955 2980 c-8 -14 3 -30 21 -30 20 0 18 -17 -3 -24 -11 -3 -8 -4 6
-3 31 3 40 27 12 34 -26 7 -27 20 -3 26 13 4 12 5 -5 6 -12 0 -25 -3 -28 -9z"/>
<path d="M1262 2953 c1 -37 1 -37 5 -5 2 17 8 32 14 32 5 0 10 -15 10 -32 l2
-33 7 35 7 35 2 -32 c1 -35 21 -47 21 -14 0 37 -12 51 -41 51 -27 0 -29 -2
-27 -37z"/>
<path d="M1370 2979 l25 -12 -25 -6 c-34 -9 -32 -35 3 -39 27 -3 28 -1 25 30
-2 27 -8 33 -28 35 l-25 3 25 -11z m15 -39 c-3 -5 -13 -10 -21 -10 -8 0 -14 5
-14 10 0 6 9 10 21 10 11 0 17 -4 14 -10z"/>
<path d="M1438 2964 c3 -16 -1 -30 -9 -35 -10 -6 -3 -8 21 -8 19 0 29 3 23 6
-7 2 -13 18 -13 34 0 18 -5 29 -14 29 -9 0 -12 -8 -8 -26z"/>
<path d="M1501 2953 c1 -36 2 -36 8 -9 9 41 31 46 31 7 0 -17 4 -31 10 -31 5
0 8 10 6 23 -3 12 -5 28 -5 35 -1 6 -12 12 -26 12 -22 0 -25 -4 -24 -37z"/>
<path d="M1974 2976 c-10 -26 1 -51 23 -54 14 -2 23 3 28 18 12 37 -38 71 -51
36z m39 -9 c3 -8 1 -20 -4 -28 -11 -19 -34 3 -26 25 8 20 23 21 30 3z"/>
<path d="M2068 2983 c12 -2 22 -8 22 -13 0 -5 -10 -10 -22 -12 -33 -4 -29 -32
5 -36 27 -3 28 -1 25 30 -2 27 -7 33 -28 35 -22 1 -22 1 -2 -4z m22 -43 c0 -5
-7 -10 -15 -10 -8 0 -15 5 -15 10 0 6 7 10 15 10 8 0 15 -4 15 -10z"/>
<path d="M2368 2963 c12 -2 30 -2 40 0 9 3 -1 5 -23 4 -22 0 -30 -2 -17 -4z"/>
<path d="M2368 2943 c12 -2 30 -2 40 0 9 3 -1 5 -23 4 -22 0 -30 -2 -17 -4z"/>
<path d="M737 2921 c-4 -17 -3 -21 5 -13 5 5 8 16 6 23 -3 8 -7 3 -11 -10z"/>
<path d="M1207 2921 c-4 -17 -3 -21 5 -13 5 5 8 16 6 23 -3 8 -7 3 -11 -10z"/>
<path d="M1440 2815 c0 -46 3 -55 18 -54 10 0 12 3 5 6 -8 3 -13 23 -13 48 0
25 5 45 13 48 7 3 5 6 -5 6 -15 1 -18 -8 -18 -54z"/>
<path d="M1828 2863 c7 -3 12 -23 12 -48 0 -25 -5 -45 -12 -48 -8 -3 -6 -6 5
-6 14 -1 17 8 17 54 0 46 -3 55 -17 54 -11 0 -13 -3 -5 -6z"/>
<path d="M2052 2820 c0 -39 2 -47 7 -26 9 42 29 44 34 4 l4 -33 1 38 c2 30 -1
37 -17 37 -11 0 -22 8 -24 18 -3 9 -5 -8 -5 -38z"/>
<path d="M2361 2823 c-1 -50 1 -53 23 -53 13 0 27 7 30 16 10 25 -3 54 -24 54
-10 0 -21 8 -23 18 -3 9 -5 -7 -6 -35z m46 -9 c8 -21 -13 -42 -28 -27 -13 13
-5 43 11 43 6 0 13 -7 17 -16z"/>
<path d="M2460 2815 c0 -30 3 -55 8 -55 4 0 7 25 7 55 0 30 -3 55 -7 55 -5 0
-8 -25 -8 -55z"/>
<path d="M567 2853 c-14 -13 -7 -74 8 -79 21 -8 45 14 45 40 0 34 -34 59 -53
39z m33 -39 c0 -24 -4 -34 -12 -32 -24 8 -22 68 2 68 5 0 10 -16 10 -36z"/>
<path d="M720 2815 c0 -41 2 -45 24 -45 31 0 34 6 29 53 -4 31 -9 37 -29 37
-22 0 -24 -4 -24 -45z m40 20 c0 -8 -7 -15 -15 -15 -8 0 -15 7 -15 15 0 8 7
15 15 15 8 0 15 -7 15 -15z m0 -40 c0 -8 -7 -15 -15 -15 -8 0 -15 7 -15 15 0
8 7 15 15 15 8 0 15 -7 15 -15z"/>
<path d="M874 2847 c-3 -9 -4 -28 -2 -44 2 -22 8 -28 28 -28 23 0 25 4 25 40
0 34 -3 40 -23 43 -13 2 -24 -3 -28 -11z m41 -33 c0 -19 -5 -29 -15 -29 -16 0
-25 28 -16 51 10 25 31 10 31 -22z"/>
<path d="M1520 2825 c6 -28 4 -37 -9 -45 -12 -7 -8 -9 19 -9 19 0 29 3 23 6
-8 2 -13 22 -13 44 0 27 -4 39 -14 39 -11 0 -12 -8 -6 -35z"/>
<path d="M1592 2853 c28 -4 28 -4 13 -40 -9 -20 -13 -38 -11 -41 5 -4 36 64
36 79 0 5 -15 8 -32 8 -31 -2 -31 -2 -6 -6z"/>
<path d="M1662 2848 c-28 -28 -2 -88 33 -74 22 8 19 47 -5 53 -27 7 -25 21 3
26 20 4 20 4 2 6 -12 0 -26 -4 -33 -11z m33 -48 c0 -7 -6 -15 -12 -17 -8 -3
-13 4 -13 17 0 13 5 20 13 18 6 -3 12 -11 12 -18z"/>
<path d="M1742 2848 c-28 -28 -2 -88 33 -74 12 4 15 16 13 43 -3 40 -23 54
-46 31z m33 -33 c0 -16 -5 -30 -11 -32 -13 -4 -25 33 -17 53 9 24 28 10 28
-21z"/>
<path d="M1755 2820 c-3 -5 -1 -10 4 -10 6 0 11 5 11 10 0 6 -2 10 -4 10 -3 0
-8 -4 -11 -10z"/>
<path d="M1038 2833 c6 -2 12 -15 12 -28 0 -13 -6 -26 -12 -28 -7 -3 3 -5 22
-5 19 0 27 2 18 5 -12 3 -18 14 -18 34 0 21 -5 29 -17 28 -11 0 -13 -3 -5 -6z"/>
<path d="M1198 2833 c6 -2 12 -22 12 -43 0 -21 -6 -41 -12 -43 -8 -4 -7 -6 3
-6 20 -1 29 19 29 65 0 29 -3 34 -22 33 -13 0 -17 -3 -10 -6z"/>
<path d="M1360 2831 c17 -5 21 -9 12 -14 -6 -5 -17 -17 -22 -28 -10 -17 -7
-19 22 -18 30 1 31 2 8 8 -17 5 -21 9 -12 14 6 5 17 17 22 28 10 17 7 19 -22
18 -30 -1 -31 -2 -8 -8z"/>
<path d="M1975 2821 c-8 -28 5 -51 29 -50 21 0 21 0 -1 9 -13 5 -23 16 -23 25
0 9 10 20 23 25 l22 9 -22 0 c-13 1 -24 -7 -28 -18z"/>
<path d="M2150 2829 l25 -12 -25 -6 c-34 -9 -32 -35 3 -39 27 -3 28 -1 25 30
-2 27 -8 33 -28 35 l-25 3 25 -11z m15 -39 c-3 -5 -13 -10 -21 -10 -8 0 -12 5
-9 10 3 6 13 10 21 10 8 0 12 -4 9 -10z"/>
<path d="M2222 2803 c1 -37 1 -37 5 -6 3 23 10 33 26 36 18 4 17 5 -5 6 -26 1
-28 -2 -26 -36z"/>
<path d="M1910 2819 c0 -5 5 -7 10 -4 6 3 10 8 10 11 0 2 -4 4 -10 4 -5 0 -10
-5 -10 -11z"/>
<path d="M808 2813 c12 -2 30 -2 40 0 9 3 -1 5 -23 4 -22 0 -30 -2 -17 -4z"/>
<path d="M808 2793 c12 -2 30 -2 40 0 9 3 -1 5 -23 4 -22 0 -30 -2 -17 -4z"/>
<path d="M657 2771 c-4 -17 -3 -21 5 -13 5 5 8 16 6 23 -3 8 -7 3 -11 -10z"/>
<path d="M970 2768 c0 -19 2 -20 10 -8 13 19 13 30 0 30 -5 0 -10 -10 -10 -22z"/>
<path d="M1126 2774 c-4 -9 -4 -19 -1 -22 2 -3 7 3 11 12 4 9 4 19 1 22 -2 3
-7 -3 -11 -12z"/>
<path d="M1287 2784 c-4 -4 -7 -14 -7 -23 0 -11 3 -12 11 -4 6 6 10 16 7 23
-2 6 -7 8 -11 4z"/>
<path d="M1907 2770 c-3 -11 -2 -20 3 -20 12 0 21 28 11 35 -5 2 -11 -4 -14
-15z"/>
<path d="M735 2665 c0 -30 3 -55 8 -55 4 0 7 25 7 55 0 30 -3 55 -7 55 -5 0
-8 -25 -8 -55z"/>
<path d="M1278 2699 c-10 -10 -13 -19 -8 -19 6 0 10 -13 10 -30 0 -16 5 -30
10 -30 6 0 10 14 10 30 0 17 5 30 13 30 8 0 7 4 -3 10 -13 9 -13 11 0 20 13 9
13 10 0 9 -8 0 -23 -9 -32 -20z"/>
<path d="M1366 2704 c-8 -22 -7 -67 2 -81 4 -7 8 12 8 42 0 30 -1 55 -2 55 -1
0 -5 -7 -8 -16z"/>
<path d="M1735 2670 c0 -48 1 -51 25 -48 34 4 43 57 11 65 -12 3 -21 12 -21
19 0 8 -3 14 -7 14 -5 0 -8 -23 -8 -50z m43 -12 c-5 -32 -28 -35 -28 -4 0 17
5 26 16 26 10 0 14 -7 12 -22z"/>
<path d="M1830 2665 c0 -46 3 -55 18 -54 10 0 12 3 5 6 -8 3 -13 23 -13 48 0
25 5 45 13 48 7 3 5 6 -5 6 -15 1 -18 -8 -18 -54z"/>
<path d="M2145 2665 c0 -29 3 -48 7 -42 4 7 8 26 8 42 0 17 -4 35 -8 42 -4 6
-7 -13 -7 -42z"/>
<path d="M2297 2700 c-9 -11 -13 -20 -8 -20 6 0 12 -15 14 -32 l4 -33 1 33 c2
23 7 32 20 33 15 0 14 1 -3 8 -19 8 -19 8 0 19 15 8 16 11 5 12 -9 0 -23 -9
-33 -20z"/>
<path d="M2540 2694 c-13 -33 -13 -47 3 -67 10 -15 12 -9 12 38 0 30 -1 55 -3
55 -1 0 -7 -12 -12 -26z"/>
<path d="M418 2703 c6 -2 12 -20 12 -38 0 -18 -6 -36 -12 -38 -7 -3 1 -5 17
-5 17 0 24 2 18 5 -8 2 -13 22 -13 44 0 31 -4 39 -17 38 -11 0 -13 -3 -5 -6z"/>
<path d="M498 2703 c26 -5 26 -4 8 -48 -8 -19 -11 -35 -6 -35 4 0 13 12 18 28
5 15 13 35 17 45 6 14 2 17 -26 16 -24 -1 -27 -3 -11 -6z"/>
<path d="M564 2696 c-3 -8 -4 -27 -2 -43 2 -22 8 -28 28 -28 20 0 25 5 25 25
0 17 -7 26 -25 31 l-25 6 25 11 c25 11 25 11 2 11 -12 1 -25 -5 -28 -13z m39
-41 c8 -18 -11 -31 -25 -17 -11 11 -3 32 12 32 4 0 10 -7 13 -15z"/>
<path d="M639 2689 c-8 -16 -8 -28 0 -45 14 -31 39 -30 51 2 19 49 -26 88 -51
43z m41 -30 c0 -19 -5 -29 -15 -29 -15 0 -22 50 -9 63 12 12 24 -4 24 -34z"/>
<path d="M1192 2694 c-7 -8 -8 -14 -3 -14 5 0 11 -12 13 -27 2 -19 10 -29 23
-31 18 -2 18 -2 3 8 -10 6 -18 20 -18 30 0 12 7 20 18 21 13 0 14 2 2 6 -8 3
-17 9 -20 13 -3 4 -11 2 -18 -6z"/>
<path d="M1431 2694 c0 -11 3 -14 6 -6 3 7 2 16 -1 19 -3 4 -6 -2 -5 -13z"/>
<path d="M1461 2694 c0 -11 3 -14 6 -6 3 7 2 16 -1 19 -3 4 -6 -2 -5 -13z"/>
<path d="M1500 2708 c-1 -14 41 -101 46 -95 3 3 -6 27 -20 54 -14 26 -25 45
-26 41z"/>
<path d="M1668 2703 c6 -2 12 -20 12 -38 0 -18 -6 -36 -12 -38 -7 -3 1 -5 17
-5 17 0 24 2 18 5 -8 2 -13 22 -13 44 0 31 -4 39 -17 38 -11 0 -13 -3 -5 -6z"/>
<path d="M1890 2702 c0 -6 9 -8 20 -5 13 4 20 0 20 -9 0 -8 -9 -23 -20 -33
-28 -26 -25 -35 13 -34 24 1 27 3 9 6 -22 4 -23 6 -7 23 22 24 16 54 -13 58
-12 2 -22 -1 -22 -6z"/>
<path d="M1993 2703 c27 -7 23 -61 -5 -73 -23 -10 -23 -10 2 -7 22 2 25 7 28
45 3 38 1 42 -20 41 -17 -1 -18 -3 -5 -6z"/>
<path d="M2061 2694 c0 -11 3 -14 6 -6 3 7 2 16 -1 19 -3 4 -6 -2 -5 -13z"/>
<path d="M2081 2694 c0 -11 3 -14 6 -6 3 7 2 16 -1 19 -3 4 -6 -2 -5 -13z"/>
<path d="M871 2638 c1 -29 3 -45 6 -36 2 9 14 18 26 20 17 2 22 10 22 33 0 25
-4 30 -27 33 -28 3 -28 2 -27 -50z m46 26 c8 -22 -15 -44 -26 -25 -10 16 -4
41 10 41 5 0 12 -7 16 -16z"/>
<path d="M960 2655 c0 -19 5 -35 10 -35 6 0 10 13 10 29 0 20 6 31 18 34 10 3
6 5 -10 6 -25 1 -28 -2 -28 -34z"/>
<path d="M1038 2683 c6 -2 12 -15 12 -28 0 -13 -6 -26 -12 -28 -7 -3 3 -5 22
-5 19 0 27 2 18 5 -12 3 -18 14 -18 34 0 21 -5 29 -17 28 -11 0 -13 -3 -5 -6z"/>
<path d="M1112 2653 c1 -37 1 -37 5 -5 3 18 10 32 18 32 8 0 15 -14 18 -32 4
-32 4 -32 5 5 2 33 0 37 -23 37 -23 0 -25 -4 -23 -37z"/>
<path d="M1580 2683 c0 -7 5 -15 11 -18 7 -5 4 -14 -7 -26 -18 -20 -6 -27 13
-8 8 8 13 8 17 0 4 -6 12 -11 18 -11 6 0 3 9 -6 19 -11 12 -14 21 -7 26 6 3
11 11 11 17 0 7 -4 7 -13 -1 -10 -8 -17 -7 -25 1 -9 9 -12 9 -12 1z"/>
<path d="M2364 2676 c-10 -26 1 -51 22 -54 24 -3 38 20 29 49 -7 22 -43 25
-51 5z m39 -9 c3 -8 1 -20 -4 -28 -11 -19 -34 3 -26 25 8 20 23 21 30 3z"/>
<path d="M2451 2650 c1 -34 2 -34 8 -6 3 16 15 33 26 37 17 6 15 7 -7 6 -25
-1 -28 -5 -27 -37z"/>
<path d="M810 2670 c0 -5 5 -10 10 -10 6 0 10 5 10 10 0 6 -4 10 -10 10 -5 0
-10 -4 -10 -10z"/>
<path d="M2220 2670 c0 -5 5 -10 10 -10 6 0 10 5 10 10 0 6 -4 10 -10 10 -5 0
-10 -4 -10 -10z"/>
<path d="M2610 2670 c0 -5 5 -10 10 -10 6 0 10 5 10 10 0 6 -4 10 -10 10 -5 0
-10 -4 -10 -10z"/>
<path d="M2690 2670 c0 -5 5 -10 10 -10 6 0 10 5 10 10 0 6 -4 10 -10 10 -5 0
-10 -4 -10 -10z"/>
<path d="M817 2634 c-4 -4 -7 -14 -7 -23 0 -11 3 -12 11 -4 6 6 10 16 7 23 -2
6 -7 8 -11 4z"/>
<path d="M2227 2634 c-4 -4 -7 -14 -7 -23 0 -11 3 -12 11 -4 6 6 10 16 7 23
-2 6 -7 8 -11 4z"/>
<path d="M2617 2634 c-4 -4 -7 -14 -7 -23 0 -11 3 -12 11 -4 6 6 10 16 7 23
-2 6 -7 8 -11 4z"/>
<path d="M2690 2618 c0 -19 2 -20 10 -8 13 19 13 30 0 30 -5 0 -10 -10 -10
-22z"/>
<path d="M191 2544 c7 -21 7 -40 -1 -60 -9 -27 -9 -28 5 -10 19 25 19 57 0 82
-14 17 -14 17 -4 -12z"/>
<path d="M270 2545 c0 -14 -6 -25 -12 -25 -10 0 -10 -2 -2 -8 7 -4 14 -18 15
-31 2 -14 11 -26 19 -28 12 -4 12 -3 2 5 -18 12 -18 92 -1 103 11 7 10 9 -3 9
-13 0 -18 -8 -18 -25z"/>
<path d="M816 2544 c-8 -31 1 -84 15 -84 5 0 4 11 -2 24 -8 18 -8 33 -1 55 6
17 7 31 3 31 -5 0 -12 -12 -15 -26z"/>
<path d="M871 2522 c-1 -52 -1 -53 27 -50 23 3 27 8 27 33 0 23 -5 31 -22 33
-12 2 -24 11 -26 20 -3 9 -5 -7 -6 -36z m46 -8 c8 -22 -15 -44 -26 -25 -10 16
-4 41 10 41 5 0 12 -7 16 -16z"/>
<path d="M1595 2515 c0 -34 4 -50 10 -44 5 5 9 25 9 44 0 19 -4 39 -9 45 -6 5
-10 -11 -10 -45z"/>
<path d="M2230 2551 c-17 -32 -10 -91 11 -91 5 0 4 11 -2 24 -8 18 -8 33 -1
55 12 35 8 41 -8 12z"/>
<path d="M2925 2515 c0 -34 4 -50 10 -44 5 5 9 25 9 44 0 19 -4 39 -9 45 -7 6
-10 -11 -10 -45z"/>
<path d="M722 2544 c-7 -8 -8 -14 -3 -14 5 0 11 -12 13 -27 2 -19 10 -29 23
-31 16 -2 17 -1 6 7 -22 15 -24 51 -3 52 13 0 14 2 2 6 -8 3 -17 9 -20 13 -3
4 -11 2 -18 -6z"/>
<path d="M1048 2553 c26 -5 29 -20 5 -26 -17 -4 -17 -5 0 -6 26 -2 22 -39 -5
-44 -22 -4 -22 -4 -2 -6 26 -1 49 23 38 41 -5 7 -7 21 -6 31 3 13 -3 17 -25
16 -23 -2 -24 -2 -5 -6z"/>
<path d="M1110 2551 c0 -6 6 -8 14 -5 28 11 28 -18 0 -47 l-28 -29 35 1 c23 1
27 3 12 6 l-23 4 21 22 c11 12 18 28 17 37 -4 17 -48 27 -48 11z"/>
<path d="M1278 2553 c6 -2 12 -20 12 -38 0 -18 -6 -36 -12 -38 -7 -3 1 -5 17
-5 17 0 24 2 18 5 -8 2 -13 22 -13 44 0 31 -4 39 -17 38 -11 0 -13 -3 -5 -6z"/>
<path d="M1358 2553 c26 -5 26 -4 8 -48 -8 -19 -11 -35 -6 -35 4 0 13 12 18
28 5 15 13 35 17 45 6 14 2 17 -26 16 -24 -1 -27 -3 -11 -6z"/>
<path d="M1431 2546 c-7 -8 -11 -27 -9 -43 2 -22 8 -28 28 -28 20 0 25 5 25
25 0 17 -7 26 -25 31 l-25 6 25 11 c16 7 19 11 9 11 -9 1 -22 -5 -28 -13z m35
-37 c10 -17 -13 -36 -27 -22 -12 12 -4 33 11 33 5 0 12 -5 16 -11z"/>
<path d="M1507 2553 c-14 -13 -7 -74 8 -79 21 -8 45 14 45 40 0 34 -34 59 -53
39z m33 -39 c0 -24 -4 -34 -12 -32 -24 8 -22 68 2 68 5 0 10 -16 10 -36z"/>
<path d="M2132 2544 c-7 -8 -8 -14 -3 -14 5 0 11 -12 13 -27 2 -18 9 -28 21
-29 12 -1 13 -1 2 3 -22 7 -20 53 3 54 13 0 14 2 2 6 -8 3 -17 9 -20 13 -3 4
-11 2 -18 -6z"/>
<path d="M2447 2553 c-14 -13 -7 -74 8 -79 21 -8 45 14 45 40 0 34 -34 59 -53
39z m35 -20 c6 -27 -2 -55 -15 -50 -7 2 -14 11 -15 21 -8 37 21 65 30 29z"/>
<path d="M2612 2553 c27 -4 28 -5 13 -33 -8 -16 -15 -35 -15 -42 1 -15 24 26
34 60 7 20 4 22 -26 21 -30 -2 -30 -2 -6 -6z"/>
<path d="M2674 2546 c-3 -8 -4 -27 -2 -43 2 -22 8 -28 28 -28 27 0 36 20 26
61 -7 27 -43 34 -52 10z m40 -12 c9 -23 -3 -56 -17 -51 -22 7 -21 67 2 67 5 0
12 -7 15 -16z"/>
<path d="M2765 2530 c-19 -37 -19 -40 5 -40 11 0 20 -6 20 -12 0 -10 2 -10 8
-1 10 16 3 83 -9 83 -5 0 -15 -13 -24 -30z m25 -10 c0 -11 -7 -20 -15 -20 -13
0 -14 4 -5 20 6 11 13 20 15 20 3 0 5 -9 5 -20z"/>
<path d="M2837 2553 c-14 -13 -7 -74 8 -79 21 -8 45 14 45 40 0 34 -34 59 -53
39z m33 -39 c0 -24 -4 -34 -12 -32 -24 8 -22 68 2 68 5 0 10 -16 10 -36z"/>
<path d="M322 2503 c1 -37 1 -37 5 -5 2 17 8 32 14 32 5 0 10 -15 10 -32 l2
-33 7 35 7 35 2 -32 c1 -35 21 -47 21 -14 0 37 -12 51 -41 51 -27 0 -29 -2
-27 -37z"/>
<path d="M410 2525 c-18 -22 -1 -49 31 -52 19 -1 20 -1 4 4 -34 9 -41 23 -11
23 21 0 27 4 24 17 -4 24 -32 28 -48 8z m40 -5 c0 -5 -9 -10 -21 -10 -11 0
-17 5 -14 10 3 6 13 10 21 10 8 0 14 -4 14 -10z"/>
<path d="M481 2503 l2 -38 7 35 7 35 2 -32 c0 -18 6 -33 11 -33 6 0 11 15 11
33 l2 32 7 -35 7 -35 2 38 c1 35 -1 37 -29 37 -28 0 -30 -2 -29 -37z"/>
<path d="M565 2530 c-8 -14 3 -30 21 -30 23 0 16 -18 -8 -23 -20 -4 -19 -4 5
-6 21 -1 27 4 27 19 0 11 -7 20 -15 20 -21 0 -19 18 3 23 13 4 12 5 -5 6 -12
0 -25 -3 -28 -9z"/>
<path d="M639 2524 c-17 -21 0 -48 32 -51 23 -1 23 -1 2 4 -31 6 -29 23 2 23
27 0 32 9 13 28 -16 16 -33 15 -49 -4z m41 -4 c0 -5 -7 -10 -15 -10 -8 0 -15
5 -15 10 0 6 7 10 15 10 8 0 15 -4 15 -10z"/>
<path d="M1732 2503 c1 -37 1 -37 5 -5 2 17 8 32 14 32 5 0 10 -15 10 -32 l2
-33 7 35 7 35 2 -32 c1 -35 21 -47 21 -14 0 37 -12 51 -41 51 -27 0 -29 -2
-27 -37z"/>
<path d="M1814 2526 c-12 -30 0 -51 31 -53 18 -1 22 1 10 4 -34 9 -41 23 -11
23 21 0 27 4 24 18 -4 22 -46 29 -54 8z m41 -6 c3 -5 -3 -10 -15 -10 -12 0
-18 5 -15 10 3 6 10 10 15 10 5 0 12 -4 15 -10z"/>
<path d="M1883 2505 c-1 -19 2 -35 8 -35 5 0 10 15 10 33 l2 32 7 -35 7 -35 2
33 c0 17 5 32 10 32 6 0 12 -15 14 -32 4 -32 4 -32 5 5 2 35 1 37 -30 37 -31
0 -33 -3 -35 -35z"/>
<path d="M1975 2530 c-8 -14 3 -30 21 -30 23 0 16 -18 -8 -23 -20 -4 -19 -4 5
-6 21 -1 27 4 27 19 0 11 -7 20 -15 20 -21 0 -19 18 3 23 13 4 12 5 -5 6 -12
0 -25 -3 -28 -9z"/>
<path d="M2049 2524 c-17 -21 0 -48 32 -51 23 -1 23 -1 2 4 -31 6 -29 23 2 23
27 0 32 9 13 28 -16 16 -33 15 -49 -4z m41 -4 c0 -5 -7 -10 -15 -10 -8 0 -15
5 -15 10 0 6 7 10 15 10 8 0 15 -4 15 -10z"/>
<path d="M2300 2531 c17 -5 21 -9 12 -14 -6 -5 -17 -17 -22 -28 -10 -17 -7
-19 22 -18 30 1 31 2 8 8 -17 5 -21 9 -12 14 6 5 17 17 22 28 10 17 7 19 -22
18 -30 -1 -31 -2 -8 -8z"/>
<path d="M1670 2520 c0 -5 5 -10 10 -10 6 0 10 5 10 10 0 6 -4 10 -10 10 -5 0
-10 -4 -10 -10z"/>
<path d="M970 2468 c0 -19 2 -20 10 -8 13 19 13 30 0 30 -5 0 -10 -10 -10 -22z"/>
<path d="M1207 2471 c-4 -17 -3 -21 5 -13 5 5 8 16 6 23 -3 8 -7 3 -11 -10z"/>
<path d="M1677 2484 c-4 -4 -7 -14 -7 -23 0 -11 3 -12 11 -4 6 6 10 16 7 23
-2 6 -7 8 -11 4z"/>
<path d="M2377 2470 c-3 -11 -2 -20 3 -20 12 0 21 28 11 35 -5 2 -11 -4 -14
-15z"/>
<path d="M2537 2471 c-4 -17 -3 -21 5 -13 5 5 8 16 6 23 -3 8 -7 3 -11 -10z"/>
<path d="M270 2405 c0 -8 -6 -15 -12 -15 -10 0 -10 -2 -1 -8 6 -4 13 -21 16
-37 l4 -30 2 33 c0 18 6 32 14 32 8 0 7 4 -3 10 -13 9 -13 11 0 20 13 8 12 10
-2 10 -10 0 -18 -7 -18 -15z"/>
<path d="M506 2404 c-8 -21 -7 -66 2 -81 4 -6 7 13 8 43 0 59 -1 62 -10 38z"/>
<path d="M1991 2394 c6 -21 7 -39 0 -57 -6 -15 -7 -27 -2 -27 9 0 21 34 21 61
0 8 -7 24 -15 35 -14 17 -14 17 -4 -12z"/>
<path d="M2070 2405 c0 -8 -6 -15 -12 -15 -10 0 -10 -2 -1 -8 6 -4 13 -21 16
-37 l4 -30 2 33 c0 18 6 32 14 32 8 0 7 4 -3 10 -13 9 -13 11 0 20 13 8 12 10
-2 10 -10 0 -18 -7 -18 -15z"/>
<path d="M2306 2404 c-8 -21 -7 -66 2 -81 4 -6 7 13 8 43 0 59 -1 62 -10 38z"/>
<path d="M719 2389 c-8 -16 -8 -28 0 -45 14 -31 39 -30 51 2 19 49 -26 88 -51
43z m36 -24 c0 -16 -6 -30 -12 -32 -9 -3 -13 7 -13 32 0 25 4 35 13 33 6 -3
12 -17 12 -33z"/>
<path d="M881 2396 c-7 -8 -11 -27 -9 -43 2 -22 8 -28 28 -28 20 0 25 5 25 25
0 17 -7 26 -25 31 l-25 6 25 11 c16 7 19 11 9 11 -9 1 -22 -5 -28 -13z m35
-37 c10 -17 -13 -36 -27 -22 -12 12 -4 33 11 33 5 0 12 -5 16 -11z"/>
<path d="M1030 2401 c0 -5 9 -7 20 -4 13 4 20 0 20 -9 0 -8 -9 -23 -20 -33
-28 -26 -25 -35 13 -34 23 1 26 3 9 6 l-22 4 20 26 c15 20 17 29 9 39 -13 16
-49 19 -49 5z"/>
<path d="M1114 2395 c-4 -9 -4 -19 0 -22 3 -3 1 -12 -5 -19 -15 -18 -3 -34 26
-34 22 0 40 22 27 35 -3 3 -7 16 -7 28 0 26 -32 36 -41 12z m36 -10 c0 -8 -7
-15 -15 -15 -8 0 -15 7 -15 15 0 8 7 15 15 15 8 0 15 -7 15 -15z m0 -40 c0 -8
-7 -15 -15 -15 -8 0 -15 7 -15 15 0 8 7 15 15 15 8 0 15 -7 15 -15z"/>
<path d="M1662 2398 c-28 -28 -2 -88 33 -74 12 4 15 16 13 43 -3 40 -23 54
-46 31z m33 -33 c0 -32 -21 -46 -27 -18 -6 27 3 54 16 50 6 -2 11 -16 11 -32z"/>
<path d="M1675 2370 c-3 -5 -1 -10 4 -10 6 0 11 5 11 10 0 6 -2 10 -4 10 -3 0
-8 -4 -11 -10z"/>
<path d="M1814 2396 c-3 -8 -4 -27 -2 -43 2 -22 8 -28 28 -28 27 0 36 20 26
61 -7 27 -43 34 -52 10z m41 -32 c0 -19 -5 -29 -15 -29 -16 0 -25 28 -16 51
10 25 31 10 31 -22z"/>
<path d="M1908 2403 c26 -5 26 -1 6 -49 -9 -22 -11 -34 -5 -29 5 6 17 27 26
48 l15 37 -32 -1 c-24 -1 -27 -3 -10 -6z"/>
<path d="M2519 2389 c-8 -16 -8 -28 0 -45 22 -49 71 -11 51 40 -12 32 -35 34
-51 5z m36 -24 c0 -16 -6 -30 -12 -32 -9 -3 -13 7 -13 32 0 25 4 35 13 33 6
-3 12 -17 12 -33z"/>
<path d="M2681 2396 c-7 -8 -11 -27 -9 -43 2 -22 8 -28 28 -28 20 0 25 5 25
25 0 17 -7 26 -25 31 l-25 6 25 11 c16 7 19 11 9 11 -9 1 -22 -5 -28 -13z m35
-37 c10 -17 -13 -36 -27 -22 -12 12 -4 33 11 33 5 0 12 -5 16 -11z"/>
<path d="M2830 2402 c0 -6 9 -8 20 -5 13 4 20 0 20 -9 0 -8 -9 -23 -20 -33
-28 -26 -25 -35 13 -34 24 1 27 3 9 6 -22 4 -23 6 -7 23 22 24 16 54 -13 58
-12 2 -22 -1 -22 -6z"/>
<path d="M2914 2396 c-3 -8 -3 -19 0 -25 4 -5 2 -12 -3 -16 -17 -10 0 -35 24
-35 23 0 40 22 27 35 -3 3 -7 16 -7 28 0 25 -32 36 -41 13z m36 -11 c0 -8 -7
-15 -15 -15 -8 0 -15 7 -15 15 0 8 7 15 15 15 8 0 15 -7 15 -15z m0 -40 c0 -8
-7 -15 -15 -15 -8 0 -15 7 -15 15 0 8 7 15 15 15 8 0 15 -7 15 -15z"/>
<path d="M326 2372 c-10 -30 4 -53 28 -50 31 4 30 62 -1 66 -14 2 -23 -3 -27
-16z m41 -8 c8 -22 -15 -44 -26 -25 -10 16 -4 41 10 41 5 0 12 -7 16 -16z"/>
<path d="M422 2353 c1 -37 1 -37 5 -6 3 23 10 33 26 36 18 4 17 5 -5 6 -26 1
-28 -2 -26 -36z"/>
<path d="M578 2383 c19 -7 15 -70 -5 -83 -16 -10 -16 -10 2 -8 16 3 21 12 23
51 3 40 0 47 -15 46 -10 0 -13 -3 -5 -6z"/>
<path d="M1184 2382 c4 -7 14 -12 22 -12 22 0 17 -17 -8 -23 -12 -4 -20 -9
-17 -12 8 -7 69 15 69 25 0 4 -8 10 -17 13 -10 2 -27 8 -37 13 -14 5 -17 4
-12 -4z"/>
<path d="M1278 2383 c20 -8 15 -81 -5 -86 -14 -4 -12 -5 5 -6 20 -1 22 3 22
49 0 41 -3 50 -17 49 -11 0 -13 -3 -5 -6z"/>
<path d="M1438 2383 c18 -7 16 -80 -3 -86 -11 -4 -10 -4 2 -3 14 1 19 12 21
49 3 40 0 47 -15 46 -10 0 -13 -3 -5 -6z"/>
<path d="M1521 2378 c0 -9 -9 -19 -18 -21 -17 -4 -17 -5 0 -6 9 0 17 -7 17
-13 0 -9 3 -10 8 -2 4 6 14 14 22 17 12 4 12 6 -2 6 -9 1 -19 9 -21 19 -4 15
-5 15 -6 0z"/>
<path d="M2126 2372 c-10 -30 4 -53 28 -50 31 4 30 62 -1 66 -14 2 -23 -3 -27
-16z m41 -8 c8 -22 -15 -44 -26 -25 -10 16 -4 41 10 41 5 0 12 -7 16 -16z"/>
<path d="M2222 2353 c1 -37 1 -37 5 -6 3 23 10 33 26 36 18 4 17 5 -5 6 -26 1
-28 -2 -26 -36z"/>
<path d="M2368 2383 c6 -2 12 -15 12 -28 0 -13 -6 -26 -12 -28 -7 -3 3 -5 22
-5 19 0 27 2 18 5 -12 3 -18 14 -18 34 0 21 -5 29 -17 28 -11 0 -13 -3 -5 -6z"/>
<path d="M190 2369 c0 -5 5 -7 10 -4 6 3 10 8 10 11 0 2 -4 4 -10 4 -5 0 -10
-5 -10 -11z"/>
<path d="M810 2370 c0 -5 5 -10 10 -10 6 0 10 5 10 10 0 6 -4 10 -10 10 -5 0
-10 -4 -10 -10z"/>
<path d="M1360 2370 c0 -5 5 -10 10 -10 6 0 10 5 10 10 0 6 -4 10 -10 10 -5 0
-10 -4 -10 -10z"/>
<path d="M2610 2370 c0 -5 5 -10 10 -10 6 0 10 5 10 10 0 6 -4 10 -10 10 -5 0
-10 -4 -10 -10z"/>
<path d="M648 2363 c12 -2 30 -2 40 0 9 3 -1 5 -23 4 -22 0 -30 -2 -17 -4z"/>
<path d="M1588 2363 c12 -2 30 -2 40 0 9 3 -1 5 -23 4 -22 0 -30 -2 -17 -4z"/>
<path d="M2448 2363 c12 -2 30 -2 40 0 9 3 -1 5 -23 4 -22 0 -30 -2 -17 -4z"/>
<path d="M648 2343 c12 -2 30 -2 40 0 9 3 -1 5 -23 4 -22 0 -30 -2 -17 -4z"/>
<path d="M1588 2343 c12 -2 30 -2 40 0 9 3 -1 5 -23 4 -22 0 -30 -2 -17 -4z"/>
<path d="M2448 2343 c12 -2 30 -2 40 0 9 3 -1 5 -23 4 -22 0 -30 -2 -17 -4z"/>
<path d="M187 2320 c-3 -11 -2 -20 3 -20 12 0 21 28 11 35 -5 2 -11 -4 -14
-15z"/>
<path d="M816 2324 c-4 -9 -4 -19 -1 -22 2 -3 7 3 11 12 4 9 4 19 1 22 -2 3
-7 -3 -11 -12z"/>
<path d="M970 2330 c0 -5 5 -10 10 -10 6 0 10 5 10 10 0 6 -4 10 -10 10 -5 0
-10 -4 -10 -10z"/>
<path d="M1367 2333 c-4 -3 -7 -13 -7 -22 1 -13 3 -13 11 2 11 19 8 33 -4 20z"/>
<path d="M1750 2330 c0 -5 5 -10 10 -10 6 0 10 5 10 10 0 6 -4 10 -10 10 -5 0
-10 -4 -10 -10z"/>
<path d="M2617 2334 c-4 -4 -7 -14 -7 -23 0 -11 3 -12 11 -4 6 6 10 16 7 23
-2 6 -7 8 -11 4z"/>
<path d="M2770 2330 c0 -5 5 -10 10 -10 6 0 10 5 10 10 0 6 -4 10 -10 10 -5 0
-10 -4 -10 -10z"/>
<path d="M891 2249 c6 -12 8 -37 5 -58 -5 -26 -4 -32 3 -21 19 27 11 100 -10
100 -6 0 -5 -9 2 -21z"/>
<path d="M977 2263 c-4 -3 -7 -15 -7 -25 0 -10 -6 -18 -12 -18 -10 0 -10 -2
-2 -8 7 -4 14 -18 15 -32 3 -16 11 -26 24 -28 15 -2 17 -1 6 6 -8 6 -14 27
-14 52 0 25 6 46 14 51 11 7 11 9 -2 9 -9 0 -19 -3 -22 -7z"/>
<path d="M1047 2250 c-9 -11 -13 -20 -8 -20 6 0 12 -15 14 -32 l4 -33 1 32 c1
21 8 33 20 36 16 4 16 5 0 6 -10 0 -18 5 -18 10 0 5 8 12 18 14 13 4 13 5 2 6
-9 0 -23 -8 -33 -19z"/>
<path d="M1117 2243 c10 -63 14 -73 31 -72 10 0 12 3 5 6 -8 3 -13 23 -13 49
0 30 -4 44 -14 44 -9 0 -12 -9 -9 -27z"/>
<path d="M1917 2263 c-9 -9 -9 -91 1 -96 4 -3 7 19 7 49 0 30 0 54 -1 54 0 0
-4 -3 -7 -7z"/>
<path d="M2065 2215 c0 -34 4 -50 10 -44 5 5 9 25 9 44 0 19 -4 39 -9 45 -7 6
-10 -11 -10 -45z"/>
<path d="M2250 2256 c0 -8 -10 -16 -22 -18 -18 -2 -23 -10 -23 -33 0 -25 4
-30 28 -33 26 -3 27 -2 27 47 0 28 -2 51 -5 51 -3 0 -5 -6 -5 -14z m-3 -42 c8
-21 -13 -42 -28 -27 -13 13 -5 43 11 43 6 0 13 -7 17 -16z"/>
<path d="M2619 2249 c-12 -23 -4 -89 11 -89 6 0 5 10 -1 24 -8 18 -8 33 -1 55
13 36 8 41 -9 10z"/>
<path d="M2771 2249 c6 -12 8 -37 5 -58 -5 -26 -4 -32 3 -21 19 27 11 100 -10
100 -6 0 -5 -9 2 -21z"/>
<path d="M567 2253 c-14 -13 -7 -74 8 -79 21 -8 45 14 45 40 0 34 -34 59 -53
39z m35 -20 c6 -27 -2 -55 -15 -50 -7 2 -14 11 -15 21 -8 37 21 65 30 29z"/>
<path d="M719 2239 c-8 -16 -8 -28 0 -45 22 -49 71 -11 51 40 -12 32 -35 34
-51 5z m39 -27 c2 -24 -1 -32 -12 -32 -12 0 -16 10 -16 36 0 45 24 42 28 -4z"/>
<path d="M796 2251 c-4 -5 2 -7 13 -4 31 8 33 -13 5 -46 l-26 -31 34 1 c25 1
27 3 10 6 l-24 5 22 23 c13 14 20 31 17 39 -7 17 -42 22 -51 7z"/>
<path d="M1352 2244 c-7 -8 -8 -14 -2 -14 5 0 10 -13 10 -30 0 -25 4 -30 23
-29 16 1 18 2 5 6 -11 3 -18 14 -18 29 0 16 6 24 18 25 13 0 14 2 2 6 -8 3
-17 9 -20 13 -3 4 -11 2 -18 -6z"/>
<path d="M80 2236 c0 -4 12 -11 28 -17 l27 -11 -30 -13 c-37 -16 -29 -19 14
-4 35 12 40 24 14 32 -10 2 -26 8 -35 12 -10 4 -18 4 -18 1z"/>
<path d="M178 2233 c6 -2 12 -15 12 -28 0 -13 -6 -26 -12 -28 -7 -3 3 -5 22
-5 19 0 27 2 18 5 -12 3 -18 14 -18 34 0 21 -5 29 -17 28 -11 0 -13 -3 -5 -6z"/>
<path d="M338 2233 c19 -7 15 -51 -5 -56 -10 -3 -2 -5 17 -5 19 0 29 2 23 5
-7 2 -13 18 -13 34 0 21 -5 29 -17 28 -11 0 -13 -3 -5 -6z"/>
<path d="M431 2228 c0 -9 -9 -19 -18 -21 -17 -4 -17 -5 0 -6 9 0 17 -7 17 -13
0 -9 3 -10 8 -2 4 6 14 14 22 17 12 4 12 6 -2 6 -9 1 -19 9 -21 19 -4 15 -5
15 -6 0z"/>
<path d="M1191 2222 c-11 -21 3 -52 24 -52 21 0 35 32 24 53 -13 22 -36 22
-48 -1z m39 -17 c0 -16 -6 -25 -15 -25 -9 0 -15 9 -15 25 0 16 6 25 15 25 9 0
15 -9 15 -25z"/>
<path d="M1290 2229 l25 -12 -25 -6 c-34 -9 -32 -35 3 -39 27 -3 28 -1 25 30
-2 27 -8 33 -28 35 l-25 3 25 -11z m15 -39 c-3 -5 -13 -10 -21 -10 -8 0 -12 5
-9 10 3 6 13 10 21 10 8 0 12 -4 9 -10z"/>
<path d="M1504 2216 c-8 -32 2 -46 29 -45 l22 0 -22 9 c-13 5 -23 16 -23 25 0
9 10 20 23 25 l22 9 -22 0 c-16 1 -24 -6 -29 -23z"/>
<path d="M1660 2225 c0 -9 7 -18 15 -21 20 -8 19 -21 -2 -28 -11 -3 -8 -4 6
-3 31 3 40 27 12 34 -26 7 -27 20 -3 26 13 4 11 5 -5 6 -15 1 -23 -5 -23 -14z"/>
<path d="M1748 2233 c19 -7 15 -51 -5 -56 -10 -3 -2 -5 17 -5 19 0 29 2 23 5
-7 2 -13 18 -13 34 0 21 -5 29 -17 28 -11 0 -13 -3 -5 -6z"/>
<path d="M1810 2206 c0 -20 5 -36 11 -36 6 0 8 8 5 18 -3 9 -2 23 3 31 13 20
34 2 28 -25 -2 -13 0 -24 5 -24 5 0 8 15 6 33 -2 27 -8 33 -30 35 -26 3 -28 1
-28 -32z"/>
<path d="M1978 2233 c6 -2 12 -15 12 -28 0 -13 -6 -26 -12 -28 -7 -3 3 -5 22
-5 19 0 27 2 18 5 -12 3 -18 14 -18 34 0 21 -5 29 -17 28 -11 0 -13 -3 -5 -6z"/>
<path d="M2365 2221 c-8 -28 5 -51 29 -50 21 0 21 0 -1 9 -13 5 -23 16 -23 25
0 9 10 20 23 25 l22 9 -22 0 c-13 1 -24 -7 -28 -18z"/>
<path d="M2444 2226 c-10 -26 1 -51 22 -54 24 -3 38 20 29 49 -7 22 -43 25
-51 5z m39 -9 c3 -8 1 -20 -4 -28 -11 -19 -34 3 -26 25 8 20 23 21 30 3z"/>
<path d="M2525 2230 c-8 -14 3 -30 21 -30 20 0 18 -18 -3 -23 -15 -3 -14 -4 1
-3 27 1 32 26 7 33 -28 7 -27 20 2 26 22 4 22 4 0 6 -12 0 -25 -3 -28 -9z"/>
<path d="M2688 2233 c18 -7 16 -80 -3 -86 -11 -4 -10 -4 2 -3 14 1 19 12 21
49 3 40 0 47 -15 46 -10 0 -13 -3 -5 -6z"/>
<path d="M2909 2224 c-17 -21 0 -48 32 -51 23 -1 23 -1 2 4 -31 6 -29 23 2 23
27 0 32 9 13 28 -16 16 -33 15 -49 -4z m41 -4 c0 -5 -7 -10 -15 -10 -8 0 -15
5 -15 10 0 6 7 10 15 10 8 0 15 -4 15 -10z"/>
<path d="M493 2213 c9 -2 25 -2 35 0 9 3 1 5 -18 5 -19 0 -27 -2 -17 -5z"/>
<path d="M1588 2213 c12 -2 30 -2 40 0 9 3 -1 5 -23 4 -22 0 -30 -2 -17 -4z"/>
<path d="M2293 2213 c9 -2 25 -2 35 0 9 3 1 5 -18 5 -19 0 -27 -2 -17 -5z"/>
<path d="M2998 2213 c12 -2 30 -2 40 0 9 3 -1 5 -23 4 -22 0 -30 -2 -17 -4z"/>
<path d="M493 2193 c9 -2 25 -2 35 0 9 3 1 5 -18 5 -19 0 -27 -2 -17 -5z"/>
<path d="M1588 2193 c12 -2 30 -2 40 0 9 3 -1 5 -23 4 -22 0 -30 -2 -17 -4z"/>
<path d="M2293 2193 c9 -2 25 -2 35 0 9 3 1 5 -18 5 -19 0 -27 -2 -17 -5z"/>
<path d="M2998 2193 c12 -2 30 -2 40 0 9 3 -1 5 -23 4 -22 0 -30 -2 -17 -4z"/>
<path d="M266 2174 c-4 -9 -4 -19 -1 -22 2 -3 7 3 11 12 4 9 4 19 1 22 -2 3
-7 -3 -11 -12z"/>
<path d="M2147 2184 c-4 -4 -7 -14 -7 -23 0 -11 3 -12 11 -4 6 6 10 16 7 23
-2 6 -7 8 -11 4z"/>
<path d="M2847 2170 c-3 -11 -2 -20 3 -20 12 0 21 28 11 35 -5 2 -11 -4 -14
-15z"/>
<path d="M349 2099 c-12 -23 -4 -89 11 -89 6 0 5 10 -1 24 -8 18 -8 33 -1 55
13 36 8 41 -9 10z"/>
<path d="M501 2099 c6 -12 8 -37 5 -58 -5 -26 -4 -32 3 -21 19 27 11 100 -10
100 -6 0 -5 -9 2 -21z"/>
<path d="M660 2105 c0 -8 -6 -15 -12 -15 -10 0 -10 -2 -1 -8 6 -4 13 -21 16
-37 l4 -30 2 33 c0 18 6 32 14 32 8 0 7 4 -3 10 -13 9 -13 11 0 20 13 8 12 10
-2 10 -10 0 -18 -7 -18 -15z"/>
<path d="M1057 2113 c-9 -9 -9 -91 1 -96 4 -3 7 19 7 49 0 30 0 54 -1 54 0 0
-4 -3 -7 -7z"/>
<path d="M1205 2065 c0 -34 4 -50 10 -44 5 5 9 25 9 44 0 19 -4 39 -9 45 -6 6
-10 -11 -10 -45z"/>
<path d="M1759 2099 c-12 -23 -4 -89 11 -89 6 0 5 10 -1 24 -8 18 -8 33 -1 55
13 36 8 41 -9 10z"/>
<path d="M1911 2094 c6 -21 7 -39 0 -57 -6 -15 -7 -27 -2 -27 9 0 21 34 21 61
0 8 -7 24 -15 35 -14 17 -14 17 -4 -12z"/>
<path d="M2052 2070 c0 -39 2 -47 7 -26 9 42 29 44 34 4 l4 -33 1 38 c2 30 -1
37 -17 37 -11 0 -22 8 -24 18 -3 9 -5 -8 -5 -38z"/>
<path d="M2250 2106 c0 -8 -10 -16 -22 -18 -18 -2 -23 -10 -23 -33 0 -25 4
-30 28 -33 26 -3 27 -2 27 47 0 28 -2 51 -5 51 -3 0 -5 -6 -5 -14z m-3 -42 c8
-21 -13 -42 -28 -27 -13 13 -5 43 11 43 6 0 13 -7 17 -16z"/>
<path d="M2856 2104 c-8 -22 -7 -82 2 -87 4 -3 7 19 7 49 0 30 -1 54 -1 54 -1
0 -5 -7 -8 -16z"/>
<path d="M411 2069 c-7 -22 -10 -44 -7 -47 3 -3 6 0 6 6 0 7 9 12 20 12 11 0
20 -4 20 -10 0 -5 4 -10 9 -10 12 0 -13 83 -26 87 -5 2 -15 -15 -22 -38z m25
-16 c-11 -11 -17 4 -9 23 7 18 8 18 11 1 2 -10 1 -21 -2 -24z"/>
<path d="M1817 2065 c-9 -25 -12 -45 -6 -45 5 0 9 5 9 10 0 6 9 10 20 10 11 0
20 -4 20 -10 0 -5 4 -10 9 -10 6 0 3 20 -6 45 -8 25 -19 45 -23 45 -4 0 -15
-20 -23 -45z m33 0 c0 -8 -4 -15 -10 -15 -5 0 -10 7 -10 15 0 8 5 15 10 15 6
0 10 -7 10 -15z"/>
<path d="M2360 2102 c0 -6 9 -8 20 -5 13 4 20 0 20 -9 0 -8 -9 -23 -20 -33
-28 -26 -25 -35 13 -34 24 1 27 3 9 6 -22 4 -23 6 -7 23 22 24 16 54 -13 58
-12 2 -22 -1 -22 -6z"/>
<path d="M2510 2065 c0 -41 2 -45 25 -45 17 0 29 8 36 24 15 32 -4 66 -36 66
-23 0 -25 -4 -25 -45z m45 0 c0 -16 -6 -30 -12 -32 -9 -3 -13 7 -13 32 0 25 4
35 13 33 6 -3 12 -17 12 -33z"/>
<path d="M2688 2103 c6 -2 12 -20 12 -38 0 -18 -6 -36 -12 -38 -7 -3 1 -5 17
-5 17 0 24 2 18 5 -8 2 -13 22 -13 44 0 31 -4 39 -17 38 -11 0 -13 -3 -5 -6z"/>
<path d="M2771 2058 c-29 -69 -21 -71 12 -3 15 30 23 55 18 55 -4 0 -18 -23
-30 -52z"/>
<path d="M3011 2102 c-1 -7 -6 -10 -12 -6 -9 5 3 -28 16 -44 1 -1 7 9 13 24 7
14 8 23 3 20 -5 -4 -12 0 -14 6 -4 10 -6 10 -6 0z"/>
<path d="M95 2080 c-8 -14 3 -30 21 -30 23 0 16 -18 -8 -23 -20 -4 -19 -4 5
-6 21 -1 27 4 27 19 0 11 -7 20 -15 20 -21 0 -19 18 3 23 13 4 12 5 -5 6 -12
0 -25 -3 -28 -9z"/>
<path d="M178 2083 c6 -2 12 -15 12 -28 0 -13 -6 -26 -12 -28 -7 -3 3 -5 22
-5 19 0 27 2 18 5 -12 3 -18 14 -18 34 0 21 -5 29 -17 28 -11 0 -13 -3 -5 -6z"/>
<path d="M252 2053 c1 -37 1 -37 5 -5 3 18 10 32 18 32 8 0 15 -14 18 -32 4
-32 4 -32 5 5 2 33 0 37 -23 37 -23 0 -25 -4 -23 -37z"/>
<path d="M800 2075 c0 -9 7 -18 15 -21 20 -8 19 -21 -2 -28 -11 -3 -8 -4 6 -3
31 3 40 27 12 34 -26 7 -27 20 -3 26 13 4 11 5 -5 6 -15 1 -23 -5 -23 -14z"/>
<path d="M886 2084 c14 -6 6 -45 -10 -56 -6 -4 5 -7 24 -7 19 0 29 3 23 6 -7
2 -13 18 -13 34 0 21 -5 29 -17 28 -10 0 -13 -3 -7 -5z"/>
<path d="M950 2056 c0 -41 14 -50 16 -10 1 14 5 28 9 32 9 9 26 -20 20 -35 -2
-7 0 -15 6 -19 7 -4 9 6 7 27 -2 29 -7 35 -30 37 -26 3 -28 1 -28 -32z"/>
<path d="M1118 2083 c6 -2 12 -22 12 -43 0 -21 -6 -41 -12 -43 -8 -4 -7 -6 3
-6 20 -1 29 19 29 65 0 29 -3 34 -22 33 -13 0 -17 -3 -10 -6z"/>
<path d="M1347 2083 c-15 -15 -7 -55 13 -60 25 -7 26 -20 3 -26 -14 -4 -13 -5
3 -6 25 -1 34 16 34 65 0 29 -3 34 -23 34 -13 0 -27 -3 -30 -7z m33 -28 c0
-26 -14 -33 -25 -15 -9 14 1 40 15 40 5 0 10 -11 10 -25z"/>
<path d="M1505 2070 c-8 -24 10 -50 34 -49 11 0 9 3 -6 9 -13 5 -23 16 -23 25
0 9 10 20 23 25 l22 9 -22 0 c-13 1 -24 -7 -28 -19z"/>
<path d="M1581 2076 c-15 -18 2 -56 24 -56 21 0 35 32 24 53 -12 21 -32 22
-48 3z m39 -21 c0 -16 -6 -25 -15 -25 -9 0 -15 9 -15 25 0 16 6 25 15 25 9 0
15 -9 15 -25z"/>
<path d="M1660 2075 c0 -9 7 -18 15 -21 20 -8 19 -21 -2 -28 -11 -3 -8 -4 6
-3 31 3 40 27 12 34 -26 7 -27 20 -3 26 13 4 11 5 -5 6 -15 1 -23 -5 -23 -14z"/>
<path d="M2300 2075 c0 -8 -5 -15 -11 -15 -6 0 -3 -7 5 -16 15 -14 17 -14 32
0 14 14 14 16 0 16 -10 0 -13 6 -10 15 4 8 1 15 -5 15 -6 0 -11 -7 -11 -15z"/>
<path d="M2914 2076 c-11 -28 1 -51 26 -53 25 -3 25 -3 3 7 -13 5 -23 16 -23
25 0 9 10 20 23 25 l22 9 -23 0 c-12 1 -25 -5 -28 -13z"/>
<path d="M728 2063 c12 -2 30 -2 40 0 9 3 -1 5 -23 4 -22 0 -30 -2 -17 -4z"/>
<path d="M1433 2063 c9 -2 25 -2 35 0 9 3 1 5 -18 5 -19 0 -27 -2 -17 -5z"/>
<path d="M2138 2063 c12 -2 30 -2 40 0 9 3 -1 5 -23 4 -22 0 -30 -2 -17 -4z"/>
<path d="M2608 2063 c12 -2 30 -2 40 0 9 3 -1 5 -23 4 -22 0 -30 -2 -17 -4z"/>
<path d="M728 2043 c12 -2 30 -2 40 0 9 3 -1 5 -23 4 -22 0 -30 -2 -17 -4z"/>
<path d="M1433 2043 c9 -2 25 -2 35 0 9 3 1 5 -18 5 -19 0 -27 -2 -17 -5z"/>
<path d="M2138 2043 c12 -2 30 -2 40 0 9 3 -1 5 -23 4 -22 0 -30 -2 -17 -4z"/>
<path d="M2608 2043 c12 -2 30 -2 40 0 9 3 -1 5 -23 4 -22 0 -30 -2 -17 -4z"/>
<path d="M577 2020 c-3 -11 -2 -20 3 -20 12 0 21 28 11 35 -5 2 -11 -4 -14
-15z"/>
<path d="M1287 2034 c-4 -4 -7 -14 -7 -23 0 -11 3 -12 11 -4 6 6 10 16 7 23
-2 6 -7 8 -11 4z"/>
<path d="M1987 2020 c-3 -11 -2 -20 3 -20 12 0 21 28 11 35 -5 2 -11 -4 -14
-15z"/>
<path d="M2457 2020 c-3 -11 -2 -20 3 -20 12 0 21 28 11 35 -5 2 -11 -4 -14
-15z"/>
<path d="M92 1920 c0 -39 2 -47 7 -26 9 41 31 46 31 7 0 -17 5 -31 10 -31 11
0 12 15 4 48 -4 12 -14 22 -24 22 -10 0 -21 8 -23 18 -3 9 -5 -8 -5 -38z"/>
<path d="M418 1949 c-10 -10 -13 -19 -8 -19 6 0 10 -13 10 -30 0 -16 5 -30 10
-30 6 0 10 14 10 30 0 17 5 30 13 30 8 0 7 4 -3 10 -13 9 -13 11 0 20 13 9 13
10 0 9 -8 0 -23 -9 -32 -20z"/>
<path d="M815 1915 c0 -29 3 -51 8 -48 9 5 9 74 -1 90 -4 6 -7 -13 -7 -42z"/>
<path d="M957 1962 c6 -4 13 -25 15 -47 2 -27 8 -40 18 -41 9 0 10 1 3 3 -8 3
-13 22 -13 49 0 35 -3 44 -17 44 -12 0 -14 -3 -6 -8z"/>
<path d="M1836 1954 c-8 -22 -7 -67 2 -81 4 -7 8 12 8 42 0 30 -1 55 -2 55 -1
0 -5 -7 -8 -16z"/>
<path d="M1991 1944 c6 -21 7 -39 0 -57 -6 -15 -7 -27 -2 -27 9 0 21 34 21 61
0 8 -7 24 -15 35 -14 17 -14 17 -4 -12z"/>
<path d="M2540 1944 c-13 -33 -13 -47 3 -67 10 -15 12 -9 12 38 0 30 -1 55 -3
55 -1 0 -7 -12 -12 -26z"/>
<path d="M2691 1949 c6 -12 8 -37 5 -58 -5 -26 -4 -32 3 -21 19 27 11 100 -10
100 -6 0 -5 -9 2 -21z"/>
<path d="M191 1952 c-1 -7 -6 -10 -11 -7 -6 4 -6 -4 1 -19 9 -18 14 -22 24
-13 13 12 17 39 4 31 -4 -2 -10 2 -12 8 -4 10 -6 10 -6 0z"/>
<path d="M720 1941 c0 -10 9 -21 20 -24 27 -7 25 -25 -2 -37 -23 -10 -23 -10
2 -7 33 3 42 46 11 54 -28 7 -27 21 2 26 19 4 18 4 -5 6 -21 1 -28 -4 -28 -18z"/>
<path d="M2590 1916 c0 -44 1 -46 29 -46 27 0 47 21 33 35 -3 3 -7 16 -7 28 0
16 -7 23 -27 25 -27 3 -28 2 -28 -42z m48 16 c2 -7 -3 -12 -12 -12 -9 0 -16 7
-16 16 0 17 22 14 28 -4z m2 -37 c0 -8 -7 -15 -15 -15 -8 0 -15 7 -15 15 0 8
7 15 15 15 8 0 15 -7 15 -15z"/>
<path d="M3069 1943 c5 -10 16 -36 25 -57 9 -22 19 -37 22 -34 6 6 -43 108
-52 108 -2 0 -1 -8 5 -17z"/>
<path d="M249 1924 c-17 -21 0 -48 32 -51 23 -1 23 -1 2 4 -31 6 -29 23 2 23
27 0 32 9 13 28 -16 16 -33 15 -49 -4z m41 -4 c0 -5 -7 -10 -15 -10 -8 0 -15
5 -15 10 0 6 7 10 15 10 8 0 15 -4 15 -10z"/>
<path d="M351 1928 c0 -9 -9 -19 -18 -21 -17 -4 -17 -5 0 -6 9 0 17 -7 17 -13
0 -9 3 -10 8 -2 4 6 14 14 22 17 12 4 12 6 -2 6 -9 1 -19 9 -21 19 -4 15 -5
15 -6 0z"/>
<path d="M495 1930 c-3 -5 3 -10 15 -10 12 0 18 5 15 10 -3 6 -10 10 -15 10
-5 0 -12 -4 -15 -10z"/>
<path d="M567 1933 c-15 -15 -7 -55 13 -60 25 -7 26 -20 3 -26 -14 -3 -13 -4
2 -3 17 1 21 9 23 49 3 40 1 47 -16 47 -10 0 -22 -3 -25 -7z m33 -28 c0 -16
-6 -25 -15 -25 -9 0 -15 9 -15 25 0 16 6 25 15 25 9 0 15 -9 15 -25z"/>
<path d="M661 1928 c0 -9 -9 -19 -18 -21 -17 -4 -17 -5 0 -6 9 0 17 -7 17 -13
0 -9 3 -10 8 -2 4 6 14 14 22 17 12 4 12 6 -2 6 -9 1 -19 9 -21 19 -4 15 -5
15 -6 0z"/>
<path d="M1114 1926 c-11 -28 1 -51 26 -53 25 -3 25 -3 3 7 -13 5 -23 16 -23
25 0 9 10 20 23 25 l22 9 -23 0 c-12 1 -25 -5 -28 -13z"/>
<path d="M1190 1919 c-10 -17 -9 -24 3 -37 23 -22 49 -8 45 25 -4 35 -33 42
-48 12z m40 -14 c0 -16 -6 -25 -15 -25 -9 0 -15 9 -15 25 0 16 6 25 15 25 9 0
15 -9 15 -25z"/>
<path d="M1270 1925 c0 -9 7 -18 15 -21 20 -8 19 -21 -2 -28 -11 -3 -8 -4 6
-3 31 3 40 27 12 34 -26 7 -27 20 -3 26 13 4 11 5 -5 6 -15 1 -23 -5 -23 -14z"/>
<path d="M1898 1933 c6 -2 12 -15 12 -28 0 -13 -6 -26 -12 -28 -7 -3 3 -5 22
-5 19 0 27 2 18 5 -12 3 -18 14 -18 34 0 21 -5 29 -17 28 -11 0 -13 -3 -5 -6z"/>
<path d="M2122 1903 c1 -37 1 -37 5 -5 2 17 8 32 14 32 5 0 10 -15 10 -32 l2
-33 7 35 7 35 2 -32 c1 -35 21 -47 21 -14 0 37 -12 51 -41 51 -27 0 -29 -2
-27 -37z"/>
<path d="M2289 1924 c-17 -21 0 -48 32 -51 23 -1 23 -1 2 4 -16 3 -23 12 -23
28 0 17 7 25 23 28 21 4 21 4 1 6 -12 0 -27 -6 -35 -15z"/>
<path d="M2364 1926 c-10 -26 1 -51 22 -54 24 -3 38 20 29 49 -7 22 -43 25
-51 5z m39 -9 c3 -8 1 -20 -4 -28 -11 -19 -34 3 -26 25 8 20 23 21 30 3z"/>
<path d="M2445 1930 c-8 -14 3 -30 21 -30 23 0 16 -18 -8 -23 -20 -4 -19 -4 5
-6 21 -1 27 4 27 19 0 11 -7 20 -15 20 -21 0 -19 18 3 23 13 4 12 5 -5 6 -12
0 -25 -3 -28 -9z"/>
<path d="M2831 1903 c1 -36 2 -36 8 -9 9 41 31 46 31 7 0 -17 5 -31 11 -31 7
0 9 9 5 23 -3 12 -6 28 -6 35 0 6 -11 12 -25 12 -22 0 -25 -4 -24 -37z"/>
<path d="M2995 1930 c-8 -14 3 -30 21 -30 23 0 16 -20 -8 -21 -19 -1 -20 -2
-4 -6 10 -3 23 0 30 7 8 8 5 16 -13 30 l-25 18 25 5 c22 4 22 4 2 6 -12 0 -25
-3 -28 -9z"/>
<path d="M1038 1913 c12 -2 30 -2 40 0 9 3 -1 5 -23 4 -22 0 -30 -2 -17 -4z"/>
<path d="M2218 1913 c12 -2 30 -2 40 0 9 3 -1 5 -23 4 -22 0 -30 -2 -17 -4z"/>
<path d="M2918 1913 c12 -2 30 -2 40 0 9 3 -1 5 -23 4 -22 0 -30 -2 -17 -4z"/>
<path d="M1038 1893 c12 -2 30 -2 40 0 9 3 -1 5 -23 4 -22 0 -30 -2 -17 -4z"/>
<path d="M2218 1893 c12 -2 30 -2 40 0 9 3 -1 5 -23 4 -22 0 -30 -2 -17 -4z"/>
<path d="M2918 1893 c12 -2 30 -2 40 0 9 3 -1 5 -23 4 -22 0 -30 -2 -17 -4z"/>
<path d="M890 1868 c0 -19 2 -20 10 -8 13 19 13 30 0 30 -5 0 -10 -10 -10 -22z"/>
<path d="M2066 1874 c-4 -9 -4 -19 -1 -22 2 -3 7 3 11 12 4 9 4 19 1 22 -2 3
-7 -3 -11 -12z"/>
<path d="M2770 1868 c0 -19 2 -20 10 -8 13 19 13 30 0 30 -5 0 -10 -10 -10
-22z"/>
<path d="M196 1804 c-8 -22 -7 -82 2 -87 4 -3 7 19 7 49 0 30 -1 54 -1 54 -1
0 -5 -7 -8 -16z"/>
<path d="M345 1765 c0 -29 3 -51 8 -48 9 5 9 74 -1 90 -4 6 -7 -13 -7 -42z"/>
<path d="M795 1770 c0 -27 3 -50 8 -50 4 0 7 14 7 31 0 39 22 34 31 -7 l7 -29
1 33 c1 26 -4 35 -19 39 -11 3 -20 12 -20 19 0 8 -3 14 -7 14 -5 0 -8 -22 -8
-50z"/>
<path d="M1130 1805 c0 -8 -6 -15 -12 -15 -10 0 -10 -2 -1 -8 6 -4 13 -21 16
-37 l4 -30 2 33 c0 18 6 32 14 32 8 0 7 4 -3 10 -13 9 -13 11 0 20 13 8 12 10
-2 10 -10 0 -18 -7 -18 -15z"/>
<path d="M250 1766 c0 -42 2 -46 24 -46 32 0 36 8 27 50 -5 26 -13 36 -29 38
-20 3 -22 -1 -22 -42z m40 19 c0 -8 -7 -15 -15 -15 -8 0 -15 7 -15 15 0 8 7
15 15 15 8 0 15 -7 15 -15z m0 -40 c0 -8 -7 -15 -15 -15 -8 0 -15 7 -15 15 0
8 7 15 15 15 8 0 15 -7 15 -15z"/>
<path d="M492 1794 c-7 -8 -8 -14 -2 -14 5 0 10 -13 10 -30 0 -25 4 -30 23
-29 16 1 18 2 5 6 -11 3 -18 14 -18 29 0 16 6 24 18 25 13 0 14 2 2 6 -8 3
-17 9 -20 13 -3 4 -11 2 -18 -6z"/>
<path d="M741 1802 c-1 -7 -6 -10 -12 -6 -9 5 3 -28 16 -44 1 -1 7 9 13 24 7
14 8 23 3 20 -5 -4 -12 0 -14 6 -4 10 -6 10 -6 0z"/>
<path d="M1211 1802 c-1 -7 -6 -10 -11 -7 -6 4 -6 -4 1 -19 9 -18 14 -22 24
-13 13 12 17 39 4 31 -4 -2 -10 2 -12 8 -4 10 -6 10 -6 0z"/>
<path d="M2212 1794 c-7 -8 -8 -14 -3 -14 5 0 11 -12 13 -27 2 -18 9 -28 21
-29 12 -1 13 -1 2 3 -22 7 -20 53 3 54 13 0 14 2 2 6 -8 3 -17 9 -20 13 -3 4
-11 2 -18 -6z"/>
<path d="M2531 1781 c-26 -36 -26 -41 -1 -41 11 0 20 -4 20 -10 0 -5 5 -10 11
-10 5 0 7 5 4 10 -3 6 0 10 7 10 9 0 9 3 2 8 -6 4 -10 19 -9 35 2 35 -8 34
-34 -2z m15 -28 c-11 -11 -17 4 -9 23 7 18 8 18 11 1 2 -10 1 -21 -2 -24z"/>
<path d="M2602 1798 c-26 -26 -8 -83 24 -76 15 2 19 12 19 43 0 42 -19 57 -43
33z m33 -33 c0 -16 -5 -30 -11 -32 -13 -4 -25 33 -17 53 9 24 28 10 28 -21z"/>
<path d="M2615 1770 c-3 -5 -1 -10 4 -10 6 0 11 5 11 10 0 6 -2 10 -4 10 -3 0
-8 -4 -11 -10z"/>
<path d="M2768 1803 c23 -5 31 -23 10 -23 -6 0 -4 -6 7 -13 22 -17 11 -41 -16
-34 -11 3 -19 1 -19 -5 0 -5 12 -8 28 -6 24 3 27 7 27 43 0 37 -2 40 -30 42
-20 1 -23 0 -7 -4z"/>
<path d="M2837 1803 c-14 -13 -7 -74 8 -79 21 -8 45 14 45 40 0 34 -34 59 -53
39z m33 -39 c0 -24 -4 -34 -12 -32 -24 8 -22 68 2 68 5 0 10 -16 10 -36z"/>
<path d="M2931 1802 c-1 -7 -6 -10 -12 -6 -9 5 3 -28 16 -44 1 -1 7 9 13 24 7
14 8 23 3 20 -5 -4 -12 0 -14 6 -4 10 -6 10 -6 0z"/>
<path d="M2980 1765 c0 -41 2 -45 25 -45 17 0 29 8 36 24 15 32 -4 66 -36 66
-23 0 -25 -4 -25 -45z m45 0 c0 -16 -6 -30 -12 -32 -9 -3 -13 7 -13 32 0 25 4
35 13 33 6 -3 12 -17 12 -33z"/>
<path d="M3091 1802 c-1 -7 -5 -11 -9 -8 -5 3 -9 -1 -9 -9 0 -8 3 -15 6 -16 3
0 13 -2 21 -4 10 -1 16 5 16 15 0 10 -3 17 -7 14 -4 -2 -10 2 -12 8 -4 10 -6
10 -6 0z"/>
<path d="M27 1778 c12 -21 9 -42 -7 -50 -9 -4 0 -7 20 -7 19 1 29 3 23 6 -7 2
-13 18 -13 34 0 20 -5 29 -16 29 -10 0 -12 -4 -7 -12z"/>
<path d="M91 1753 c1 -36 2 -36 8 -9 9 41 31 46 31 7 0 -17 4 -31 9 -31 5 0 8
12 6 28 -2 15 -4 30 -4 35 -1 4 -12 7 -26 7 -22 0 -25 -4 -24 -37z"/>
<path d="M644 1776 c-11 -28 1 -51 26 -53 25 -3 25 -3 3 7 -13 5 -23 16 -23
25 0 9 10 20 23 25 l22 9 -23 0 c-12 1 -25 -5 -28 -13z"/>
<path d="M885 1780 c-3 -5 3 -10 15 -10 12 0 18 5 15 10 -3 6 -10 10 -15 10
-5 0 -12 -4 -15 -10z"/>
<path d="M957 1783 c-15 -15 -7 -55 13 -60 25 -7 26 -20 3 -26 -14 -4 -13 -5
3 -6 25 -1 34 16 34 65 0 29 -3 34 -23 34 -13 0 -27 -3 -30 -7z m33 -28 c0
-26 -14 -33 -25 -15 -9 14 1 40 15 40 5 0 10 -11 10 -25z"/>
<path d="M1894 1776 c-11 -28 1 -51 26 -53 l25 -3 -25 12 -25 12 28 4 c20 2
27 8 25 20 -4 22 -46 28 -54 8z m41 -6 c3 -5 -3 -10 -15 -10 -12 0 -18 5 -15
10 3 6 10 10 15 10 5 0 12 -4 15 -10z"/>
<path d="M2058 1783 c6 -2 12 -15 12 -28 0 -13 -6 -26 -12 -28 -7 -3 3 -5 22
-5 19 0 27 2 18 5 -12 3 -18 14 -18 34 0 21 -5 29 -17 28 -11 0 -13 -3 -5 -6z"/>
<path d="M2124 1756 c1 -43 16 -49 16 -6 0 39 27 41 33 3 4 -26 4 -26 3 2 -1
25 -6 31 -27 33 -23 3 -25 0 -25 -32z"/>
<path d="M2368 1773 c8 -14 9 -24 2 -28 -5 -3 -10 -11 -10 -17 0 -6 7 -5 17 3
13 11 17 11 20 2 3 -7 9 -13 15 -13 6 0 5 7 -3 16 -10 12 -10 20 -1 35 7 10 8
19 3 19 -6 0 -13 -5 -16 -10 -5 -8 -12 -7 -23 2 -13 12 -14 10 -4 -9z"/>
<path d="M2690 1775 c0 -8 -5 -15 -11 -15 -6 0 -3 -7 5 -16 15 -14 17 -14 32
0 8 9 11 16 5 16 -6 0 -11 7 -11 15 0 8 -4 15 -10 15 -5 0 -10 -7 -10 -15z"/>
<path d="M1990 1769 c0 -5 5 -7 10 -4 6 3 10 8 10 11 0 2 -4 4 -10 4 -5 0 -10
-5 -10 -11z"/>
<path d="M568 1763 c12 -2 30 -2 40 0 9 3 -1 5 -23 4 -22 0 -30 -2 -17 -4z"/>
<path d="M2448 1763 c12 -2 30 -2 40 0 9 3 -1 5 -23 4 -22 0 -30 -2 -17 -4z"/>
<path d="M1048 1753 c7 -3 16 -2 19 1 4 3 -2 6 -13 5 -11 0 -14 -3 -6 -6z"/>
<path d="M568 1743 c12 -2 30 -2 40 0 9 3 -1 5 -23 4 -22 0 -30 -2 -17 -4z"/>
<path d="M2448 1743 c12 -2 30 -2 40 0 9 3 -1 5 -23 4 -22 0 -30 -2 -17 -4z"/>
<path d="M427 1734 c-4 -4 -7 -14 -7 -23 0 -11 3 -12 11 -4 6 6 10 16 7 23 -2
6 -7 8 -11 4z"/>
<path d="M1987 1720 c-3 -11 -2 -20 3 -20 12 0 21 28 11 35 -5 2 -11 -4 -14
-15z"/>
<path d="M36 1654 c-8 -22 -7 -67 2 -81 4 -7 8 12 8 42 0 30 -1 55 -2 55 -1 0
-5 -7 -8 -16z"/>
<path d="M98 1663 c7 -3 12 -23 12 -49 0 -36 3 -44 18 -43 10 0 12 3 5 6 -8 3
-13 23 -13 49 0 36 -3 44 -17 43 -11 0 -13 -3 -5 -6z"/>
<path d="M252 1620 c0 -39 2 -47 7 -26 9 42 29 44 34 4 l4 -33 1 38 c2 30 -1
37 -17 37 -11 0 -22 8 -24 18 -3 9 -5 -8 -5 -38z"/>
<path d="M815 1615 c0 -29 3 -51 8 -48 9 5 9 74 -1 90 -4 6 -7 -13 -7 -42z"/>
<path d="M2696 1654 c-8 -22 -7 -67 2 -81 4 -7 8 12 8 42 0 30 -1 55 -2 55 -1
0 -5 -7 -8 -16z"/>
<path d="M2757 1662 c6 -4 13 -25 15 -47 2 -27 8 -40 18 -41 9 0 10 1 3 3 -8
3 -13 22 -13 49 0 35 -3 44 -17 44 -12 0 -14 -3 -6 -8z"/>
<path d="M2912 1620 c0 -39 2 -47 7 -26 9 42 29 44 34 4 l4 -33 1 38 c2 30 -1
37 -17 37 -11 0 -22 8 -24 18 -3 9 -5 -8 -5 -38z"/>
<path d="M191 1652 c-1 -7 -6 -10 -11 -7 -6 4 -6 -4 1 -19 9 -18 14 -22 24
-13 13 12 17 39 4 31 -4 -2 -10 2 -12 8 -4 10 -6 10 -6 0z"/>
<path d="M351 1652 c-1 -7 -5 -11 -9 -8 -5 3 -9 -1 -9 -9 0 -23 26 -26 38 -3
7 12 7 18 1 14 -6 -3 -13 0 -15 6 -4 10 -6 10 -6 0z"/>
<path d="M574 1651 c4 -5 0 -12 -6 -14 -10 -4 -10 -6 0 -6 7 -1 12 -14 12 -31
0 -22 5 -30 18 -29 10 0 12 3 5 6 -16 6 -17 53 -2 53 6 0 4 7 -5 15 -16 16
-30 20 -22 6z"/>
<path d="M661 1652 c-1 -7 -6 -10 -12 -6 -9 5 3 -28 16 -44 1 -1 7 9 13 24 7
14 8 23 3 20 -5 -4 -12 0 -14 6 -4 10 -6 10 -6 0z"/>
<path d="M2058 1653 c6 -2 12 -20 12 -38 0 -18 -6 -36 -12 -38 -7 -3 3 -5 22
-5 19 0 29 2 23 5 -8 2 -13 22 -13 44 0 34 -3 39 -22 38 -13 0 -17 -3 -10 -6z"/>
<path d="M2126 1651 c-4 -5 2 -7 13 -4 31 8 33 -13 5 -46 l-26 -31 34 1 c25 1
27 3 10 6 l-24 5 22 23 c13 14 20 31 17 39 -7 17 -42 22 -51 7z"/>
<path d="M2298 1653 c6 -2 12 -20 12 -38 0 -18 -6 -36 -12 -38 -7 -3 1 -5 17
-5 17 0 24 2 18 5 -8 2 -13 22 -13 44 0 31 -4 39 -17 38 -11 0 -13 -3 -5 -6z"/>
<path d="M2360 1641 c0 -10 9 -21 20 -24 27 -7 25 -35 -2 -40 -22 -4 -22 -4
-2 -6 30 -2 50 24 34 44 -7 8 -19 15 -26 15 -23 0 -16 18 9 23 19 4 18 4 -5 6
-21 1 -28 -4 -28 -18z"/>
<path d="M2461 1652 c-1 -7 -6 -10 -11 -7 -6 4 -6 -4 1 -19 9 -18 14 -22 24
-13 13 12 17 39 4 31 -4 -2 -10 2 -12 8 -4 10 -6 10 -6 0z"/>
<path d="M2510 1615 c0 -41 2 -45 25 -45 17 0 29 8 36 24 15 32 -4 66 -36 66
-23 0 -25 -4 -25 -45z m45 0 c0 -16 -6 -30 -12 -32 -9 -3 -13 7 -13 32 0 25 4
35 13 33 6 -3 12 -17 12 -33z"/>
<path d="M2621 1652 c-1 -7 -5 -11 -9 -8 -5 3 -9 -1 -9 -9 0 -23 26 -26 38 -3
7 12 7 18 1 14 -6 -3 -13 0 -15 6 -4 10 -6 10 -6 0z"/>
<path d="M2851 1652 c-1 -7 -5 -11 -9 -8 -4 2 -8 -4 -8 -14 0 -10 4 -16 8 -14
4 3 8 0 8 -6 0 -7 5 -7 13 2 14 13 19 41 6 32 -4 -2 -10 2 -12 8 -4 10 -6 10
-6 0z"/>
<path d="M3011 1652 c-1 -7 -6 -10 -12 -6 -9 5 3 -28 16 -44 1 -1 7 9 13 24 7
14 8 23 3 20 -5 -4 -12 0 -14 6 -4 10 -6 10 -6 0z"/>
<path d="M402 1603 c1 -37 1 -37 5 -5 2 17 8 32 14 32 5 0 10 -15 10 -32 l2
-33 7 35 7 35 2 -32 c1 -35 21 -47 21 -14 0 37 -12 51 -41 51 -27 0 -29 -2
-27 -37z"/>
<path d="M722 1603 c1 -37 1 -37 5 -5 3 18 10 32 18 32 8 0 15 -14 18 -32 4
-32 4 -32 5 5 2 33 0 37 -23 37 -23 0 -25 -4 -23 -37z"/>
<path d="M953 1626 c18 -45 19 -68 6 -77 -11 -7 -11 -9 3 -9 10 0 22 16 32 47
9 25 14 48 12 50 -2 3 -7 -5 -11 -16 -7 -24 -25 -28 -25 -7 0 8 -5 18 -12 22
-8 5 -9 2 -5 -10z"/>
<path d="M2231 1628 c0 -9 -9 -19 -18 -21 -17 -4 -17 -5 0 -6 9 0 17 -7 17
-13 0 -9 3 -10 8 -2 4 6 14 14 22 17 12 4 12 6 -2 6 -9 1 -19 9 -21 19 -4 15
-5 15 -6 0z"/>
<path d="M3069 1623 c0 -10 -2 -26 -4 -35 -2 -10 1 -18 6 -18 5 0 9 14 9 30 0
42 27 40 33 -2 l5 -33 -2 35 c-1 28 -5 36 -23 38 -17 2 -23 -2 -24 -15z"/>
<path d="M1038 1613 c12 -2 30 -2 40 0 9 3 -1 5 -23 4 -22 0 -30 -2 -17 -4z"/>
<path d="M498 1603 c6 -2 18 -2 25 0 6 3 1 5 -13 5 -14 0 -19 -2 -12 -5z"/>
<path d="M1038 1593 c12 -2 30 -2 40 0 9 3 -1 5 -23 4 -22 0 -30 -2 -17 -4z"/>
<path d="M897 1583 c-4 -3 -7 -13 -7 -22 1 -13 3 -13 11 2 11 19 8 33 -4 20z"/>
<path d="M345 1465 c0 -29 3 -48 7 -42 4 7 8 26 8 42 0 17 -4 35 -8 42 -4 6
-7 -13 -7 -42z"/>
<path d="M2306 1504 c-9 -23 -7 -67 4 -84 6 -10 8 -4 4 21 -4 20 -1 46 5 58 7
11 8 21 2 21 -5 0 -12 -7 -15 -16z"/>
<path d="M2385 1509 c-10 -15 -9 -79 2 -89 4 -5 8 16 8 46 0 58 0 60 -10 43z"/>
<path d="M2457 1500 c-9 -11 -13 -20 -8 -20 6 0 12 -15 14 -32 l4 -33 1 32 c1
21 8 33 20 36 16 4 16 5 0 6 -10 0 -18 5 -18 10 0 5 8 12 18 14 13 4 13 5 2 6
-9 0 -23 -8 -33 -19z"/>
<path d="M2950 1505 c0 -8 -9 -15 -19 -15 -22 0 -35 -28 -25 -54 3 -9 17 -16
30 -16 22 0 24 4 24 50 0 28 -2 50 -5 50 -3 0 -5 -7 -5 -15z m-2 -53 c2 -15
-2 -22 -12 -22 -11 0 -16 9 -16 26 0 31 23 28 28 -4z"/>
<path d="M104 1501 c4 -5 0 -12 -6 -14 -10 -4 -10 -6 0 -6 7 -1 12 -14 12 -31
0 -22 5 -30 18 -29 10 0 12 3 5 6 -16 6 -17 53 -2 53 6 0 4 7 -5 15 -16 16
-30 20 -22 6z"/>
<path d="M191 1502 c-1 -7 -6 -10 -11 -7 -6 4 -6 -4 1 -19 9 -18 14 -22 24
-13 13 12 17 39 4 31 -4 -2 -10 2 -12 8 -4 10 -6 10 -6 0z"/>
<path d="M799 1503 c-1 -4 -2 -24 -2 -43 -2 -31 1 -35 23 -35 23 0 25 4 25 40
0 34 -3 40 -22 43 -13 2 -23 0 -24 -5z m33 -18 c0 -5 -5 -11 -11 -13 -6 -2
-11 4 -11 13 0 9 5 15 11 13 6 -2 11 -8 11 -13z m3 -36 c10 -15 -1 -23 -20
-15 -9 3 -13 10 -10 16 8 13 22 13 30 -1z"/>
<path d="M874 1497 c-3 -9 -4 -28 -2 -44 4 -38 44 -46 54 -9 3 13 4 33 2 43
-4 22 -46 30 -54 10z m42 -23 c7 -27 -7 -50 -25 -40 -12 8 -15 49 -4 59 13 13
23 7 29 -19z"/>
<path d="M1971 1463 c2 -46 2 -46 8 -13 l6 35 12 -32 c17 -47 33 -41 33 12 0
27 -5 45 -11 45 -8 0 -9 -11 -5 -32 5 -31 5 -32 -9 -14 -8 11 -15 26 -15 33 0
7 -4 13 -10 13 -5 0 -9 -21 -9 -47z"/>
<path d="M2129 1503 c-1 -4 -2 -24 -2 -43 -2 -31 1 -35 23 -35 23 0 25 4 25
40 0 34 -3 40 -22 43 -13 2 -23 0 -24 -5z m33 -18 c0 -5 -5 -11 -11 -13 -6 -2
-11 4 -11 13 0 9 5 15 11 13 6 -2 11 -8 11 -13z m8 -40 c0 -8 -6 -15 -14 -15
-17 0 -28 14 -19 24 12 12 33 6 33 -9z"/>
<path d="M2231 1502 c-1 -7 -5 -11 -9 -8 -5 3 -9 -1 -9 -9 0 -23 26 -26 38 -3
7 12 7 18 1 14 -6 -3 -13 0 -15 6 -4 10 -6 10 -6 0z"/>
<path d="M2541 1502 c-1 -7 -5 -11 -9 -8 -13 8 -10 -19 3 -31 10 -9 15 -5 24
13 6 14 7 23 2 20 -5 -4 -12 0 -14 6 -4 10 -6 10 -6 0z"/>
<path d="M2851 1502 c-1 -7 -6 -10 -11 -7 -6 4 -6 -4 1 -19 9 -18 14 -22 24
-13 13 12 17 39 4 31 -4 -2 -10 2 -12 8 -4 10 -6 10 -6 0z"/>
<path d="M3011 1502 c-1 -7 -6 -10 -12 -6 -9 5 3 -28 16 -44 1 -1 7 9 13 24 7
14 8 23 3 20 -5 -4 -12 0 -14 6 -4 10 -6 10 -6 0z"/>
<path d="M30 1475 c0 -8 -5 -15 -11 -15 -6 0 -3 -7 5 -16 15 -14 17 -14 32 0
14 14 14 16 0 16 -10 0 -13 6 -10 15 4 8 1 15 -5 15 -6 0 -11 -7 -11 -15z"/>
<path d="M242 1453 c1 -37 1 -37 5 -5 2 17 8 32 13 32 5 0 11 -15 13 -32 l4
-33 1 33 c1 17 6 32 11 32 6 0 12 -15 14 -32 l5 -33 -2 35 c-1 32 -4 35 -33
38 -32 3 -33 2 -31 -35z"/>
<path d="M484 1476 c-11 -29 0 -51 26 -51 21 0 25 5 25 30 0 24 -5 31 -23 33
-13 2 -24 -3 -28 -12z m43 -12 c8 -21 -13 -42 -28 -27 -13 13 -5 43 11 43 6 0
13 -7 17 -16z"/>
<path d="M640 1483 c0 -7 5 -15 11 -18 7 -5 4 -14 -7 -26 -18 -20 -6 -27 13
-8 8 8 13 8 17 0 4 -6 12 -11 18 -11 6 0 3 9 -6 19 -11 12 -14 21 -7 26 6 3
11 11 11 17 0 7 -4 7 -13 -1 -10 -8 -17 -7 -25 1 -9 9 -12 9 -12 1z"/>
<path d="M741 1478 c0 -9 -9 -19 -18 -21 -17 -4 -17 -5 0 -6 9 0 17 -7 17 -13
0 -9 3 -10 8 -2 4 6 14 14 22 17 12 4 12 6 -2 6 -9 1 -19 9 -21 19 -4 15 -5
15 -6 0z"/>
<path d="M965 1480 c-3 -5 3 -10 15 -10 12 0 18 5 15 10 -3 6 -10 10 -15 10
-5 0 -12 -4 -15 -10z"/>
<path d="M1031 1486 c-1 -5 4 -25 11 -43 10 -29 10 -36 -2 -43 -11 -7 -11 -10
-2 -10 13 0 56 89 48 98 -3 3 -10 -8 -17 -24 l-11 -29 -13 30 c-7 17 -14 26
-14 21z"/>
<path d="M2600 1475 c-18 -22 -1 -49 31 -52 19 -1 20 -1 4 4 -34 9 -41 23 -11
23 21 0 27 4 24 17 -4 24 -32 28 -48 8z m40 -5 c0 -5 -9 -10 -21 -10 -11 0
-17 5 -14 10 3 6 13 10 21 10 8 0 14 -4 14 -10z"/>
<path d="M2759 1474 c-17 -21 0 -48 32 -51 23 -1 23 -1 2 4 -16 3 -23 12 -23
28 0 17 7 25 23 28 21 4 21 4 1 6 -12 0 -27 -6 -35 -15z"/>
<path d="M3064 1476 c-10 -27 1 -50 26 -57 l25 -6 -25 -12 -25 -11 25 3 c22 2
25 7 28 50 3 45 2 47 -23 47 -14 0 -28 -6 -31 -14z m43 -12 c8 -21 -13 -42
-28 -27 -13 13 -5 43 11 43 6 0 13 -7 17 -16z"/>
<path d="M568 1463 c12 -2 30 -2 40 0 9 3 -1 5 -23 4 -22 0 -30 -2 -17 -4z"/>
<path d="M2058 1463 c12 -2 30 -2 40 0 9 3 -1 5 -23 4 -22 0 -30 -2 -17 -4z"/>
<path d="M2688 1453 c6 -2 18 -2 25 0 6 3 1 5 -13 5 -14 0 -19 -2 -12 -5z"/>
<path d="M568 1443 c12 -2 30 -2 40 0 9 3 -1 5 -23 4 -22 0 -30 -2 -17 -4z"/>
<path d="M2058 1443 c12 -2 30 -2 40 0 9 3 -1 5 -23 4 -22 0 -30 -2 -17 -4z"/>
<path d="M427 1434 c-4 -4 -7 -14 -7 -23 0 -11 3 -12 11 -4 6 6 10 16 7 23 -2
6 -7 8 -11 4z"/>
<path d="M1126 1424 c-4 -9 -4 -19 -1 -22 2 -3 7 3 11 12 4 9 4 19 1 22 -2 3
-7 -3 -11 -12z"/>
<path d="M111 1344 c7 -21 7 -40 -1 -60 -9 -27 -9 -28 5 -10 19 25 19 57 0 82
-14 17 -14 17 -4 -12z"/>
<path d="M600 1356 c0 -7 -9 -16 -21 -19 -30 -8 -23 -61 9 -65 20 -3 22 0 22
47 0 28 -2 51 -5 51 -3 0 -5 -6 -5 -14z m0 -51 c0 -16 -6 -25 -15 -25 -9 0
-15 9 -15 25 0 16 6 25 15 25 9 0 15 -9 15 -25z"/>
<path d="M887 1350 c-9 -11 -13 -20 -8 -20 6 0 12 -15 14 -32 l4 -33 1 33 c2
23 7 32 20 33 15 0 14 1 -3 8 -19 8 -19 8 0 19 15 8 16 11 5 12 -9 0 -23 -9
-33 -20z"/>
<path d="M1197 1343 c10 -63 14 -73 31 -72 10 0 12 3 5 6 -8 3 -13 23 -13 49
0 30 -4 44 -14 44 -9 0 -12 -9 -9 -27z"/>
<path d="M2010 1356 c0 -7 -9 -16 -21 -19 -30 -8 -23 -61 9 -65 20 -3 22 0 22
47 0 28 -2 51 -5 51 -3 0 -5 -6 -5 -14z m0 -51 c0 -16 -6 -25 -15 -25 -9 0
-15 9 -15 25 0 16 6 25 15 25 9 0 15 -9 15 -25z"/>
<path d="M2225 1315 c0 -29 3 -51 8 -48 9 5 9 74 -1 90 -4 6 -7 -13 -7 -42z"/>
<path d="M2457 1350 c-9 -11 -13 -20 -8 -20 6 0 12 -15 14 -32 l4 -33 1 32 c1
21 8 33 20 36 16 4 16 5 0 6 -10 0 -18 5 -18 10 0 5 8 12 18 14 13 4 13 5 2 6
-9 0 -23 -8 -33 -19z"/>
<path d="M2540 1344 c-13 -33 -13 -47 3 -67 10 -15 12 -9 12 38 0 30 -1 55 -3
55 -1 0 -7 -12 -12 -26z"/>
<path d="M191 1352 c-1 -7 -6 -10 -11 -7 -6 4 -6 -4 1 -19 9 -18 14 -22 24
-13 13 12 17 39 4 31 -4 -2 -10 2 -12 8 -4 10 -6 10 -6 0z"/>
<path d="M661 1352 c-1 -7 -5 -11 -9 -8 -13 8 -10 -19 3 -31 10 -9 15 -5 24
13 6 14 7 23 2 20 -5 -4 -12 0 -14 6 -4 10 -6 10 -6 0z"/>
<path d="M1911 1352 c-1 -7 -6 -10 -11 -7 -6 4 -6 -4 1 -19 9 -18 14 -22 24
-13 13 12 17 39 4 31 -4 -2 -10 2 -12 8 -4 10 -6 10 -6 0z"/>
<path d="M2071 1352 c-1 -7 -5 -11 -9 -8 -13 8 -10 -19 3 -31 10 -9 15 -5 24
13 6 14 7 23 2 20 -5 -4 -12 0 -14 6 -4 10 -6 10 -6 0z"/>
<path d="M2596 1351 c-4 -5 2 -7 13 -4 31 8 33 -13 5 -46 l-26 -31 34 1 c25 1
27 3 10 6 l-24 5 22 23 c13 14 20 31 17 39 -7 17 -42 22 -51 7z"/>
<path d="M2670 1351 c0 -5 9 -7 20 -4 13 4 20 0 20 -9 0 -8 -9 -23 -20 -33
-28 -26 -25 -35 13 -34 25 1 27 3 9 6 l-24 5 22 23 c13 14 20 31 17 39 -7 17
-57 23 -57 7z"/>
<path d="M2909 1333 c-15 -40 -8 -58 26 -61 27 -3 31 0 32 25 1 15 -1 22 -4
15 -4 -10 -9 -9 -24 4 -24 21 -24 31 -1 37 16 4 16 5 -1 6 -10 1 -22 -10 -28
-26z m32 -39 c12 -14 11 -16 -5 -13 -11 2 -21 10 -24 17 -5 17 13 15 29 -4z"/>
<path d="M2989 1333 c-15 -40 -8 -58 26 -61 27 -3 31 0 32 25 1 15 -1 22 -4
15 -4 -10 -9 -9 -24 4 -24 21 -24 31 -1 37 16 4 16 5 -1 6 -10 1 -22 -10 -28
-26z m32 -39 c12 -14 11 -16 -5 -13 -11 2 -21 10 -24 17 -5 17 13 15 29 -4z"/>
<path d="M242 1303 c1 -37 1 -37 5 -5 2 17 8 32 13 32 5 0 11 -15 13 -32 l4
-33 1 33 c1 17 6 32 11 32 6 0 12 -15 14 -32 l5 -33 -2 35 c-1 32 -4 35 -33
38 -32 3 -33 2 -31 -35z"/>
<path d="M414 1326 c-11 -28 1 -51 26 -53 25 -3 25 -3 3 7 -13 5 -23 16 -23
25 0 9 10 20 23 25 l22 9 -23 0 c-12 1 -25 -5 -28 -13z"/>
<path d="M495 1330 c-3 -5 3 -10 15 -10 12 0 18 5 15 10 -3 6 -10 10 -15 10
-5 0 -12 -4 -15 -10z"/>
<path d="M719 1324 c-17 -21 0 -48 32 -51 23 -1 23 -1 2 4 -31 6 -29 23 2 23
27 0 32 9 13 28 -16 16 -33 15 -49 -4z m41 -4 c0 -5 -7 -10 -15 -10 -8 0 -15
5 -15 10 0 6 7 10 15 10 8 0 15 -4 15 -10z"/>
<path d="M965 1330 c-3 -5 3 -10 15 -10 12 0 18 5 15 10 -3 6 -10 10 -15 10
-5 0 -12 -4 -15 -10z"/>
<path d="M1037 1333 c-15 -15 -7 -55 13 -60 25 -7 26 -20 3 -26 -14 -3 -13 -4
2 -3 17 1 21 9 23 49 3 40 1 47 -16 47 -10 0 -22 -3 -25 -7z m33 -28 c0 -16
-6 -25 -15 -25 -9 0 -15 9 -15 25 0 16 6 25 15 25 9 0 15 -9 15 -25z"/>
<path d="M2125 1305 c0 -19 3 -35 7 -35 4 0 8 14 8 30 0 39 27 41 33 3 4 -26
4 -26 3 2 -1 24 -6 31 -26 33 -22 3 -25 -1 -25 -33z"/>
<path d="M2368 1333 c6 -2 12 -15 12 -28 0 -13 -6 -26 -12 -28 -7 -3 3 -5 22
-5 19 0 27 2 18 5 -12 3 -18 14 -18 34 0 21 -5 29 -17 28 -11 0 -13 -3 -5 -6z"/>
<path d="M2750 1331 c0 -5 10 -12 23 -15 l22 -7 -22 -9 c-34 -14 -28 -21 7 -9
17 6 30 15 30 19 0 4 -13 13 -30 19 -16 5 -30 6 -30 2z"/>
<path d="M2831 1336 c-1 -5 4 -25 11 -43 10 -29 10 -36 -2 -43 -11 -7 -11 -10
-2 -10 13 0 56 89 48 98 -3 3 -10 -8 -17 -24 l-11 -29 -13 30 c-7 17 -14 26
-14 21z"/>
<path d="M2300 1320 c0 -5 5 -10 10 -10 6 0 10 5 10 10 0 6 -4 10 -10 10 -5 0
-10 -4 -10 -10z"/>
<path d="M348 1303 c7 -3 16 -2 19 1 4 3 -2 6 -13 5 -11 0 -14 -3 -6 -6z"/>
<path d="M808 1303 c6 -2 18 -2 25 0 6 3 1 5 -13 5 -14 0 -19 -2 -12 -5z"/>
<path d="M1128 1303 c7 -3 16 -2 19 1 4 3 -2 6 -13 5 -11 0 -14 -3 -6 -6z"/>
<path d="M2300 1268 c0 -19 2 -20 10 -8 13 19 13 30 0 30 -5 0 -10 -10 -10
-22z"/>
<path d="M1593 1165 c0 -34 4 -55 11 -55 7 0 11 21 11 55 0 34 -4 55 -11 55
-7 0 -11 -21 -11 -55z"/>
<path d="M1748 1213 c7 -3 12 -23 12 -48 0 -25 -5 -45 -12 -48 -8 -3 -6 -6 5
-6 14 -1 17 8 17 54 0 46 -3 55 -17 54 -11 0 -13 -3 -5 -6z"/>
<path d="M1831 1199 c6 -12 8 -37 5 -58 -5 -26 -4 -32 3 -21 19 27 11 100 -10
100 -6 0 -5 -9 2 -21z"/>
<path d="M1917 1213 c-4 -3 -7 -15 -7 -25 0 -10 -6 -18 -12 -18 -10 0 -10 -2
-2 -8 7 -4 14 -18 15 -31 2 -14 11 -26 19 -29 12 -4 13 -2 3 9 -16 17 -17 81
-1 97 7 7 8 12 2 12 -6 0 -14 -3 -17 -7z"/>
<path d="M2062 1165 c1 -31 6 -55 12 -55 7 0 11 23 11 55 0 36 -4 55 -12 55
-8 0 -12 -18 -11 -55z"/>
<path d="M2219 1211 c9 -6 12 -23 10 -55 -2 -25 -1 -46 3 -46 5 0 8 25 8 55 0
46 -3 55 -17 55 -14 0 -15 -2 -4 -9z"/>
<path d="M2671 1172 c-1 -52 -1 -53 27 -50 23 3 27 8 27 33 0 23 -5 31 -22 33
-12 2 -24 11 -26 20 -3 9 -5 -7 -6 -36z m46 -8 c8 -22 -15 -44 -26 -25 -10 16
-4 41 10 41 5 0 12 -7 16 -16z"/>
<path d="M2770 1165 c0 -46 3 -55 18 -54 10 0 12 3 5 6 -8 3 -13 23 -13 48 0
25 5 45 13 48 7 3 5 6 -5 6 -15 1 -18 -8 -18 -54z"/>
<path d="M2925 1165 c0 -30 3 -55 8 -55 8 0 8 -2 10 63 1 26 -2 47 -8 47 -5 0
-10 -25 -10 -55z"/>
<path d="M249 1189 c-13 -26 2 -69 25 -69 24 0 40 38 27 66 -13 30 -37 31 -52
3z m36 -24 c0 -16 -6 -30 -12 -32 -9 -3 -13 7 -13 32 0 25 4 35 13 33 6 -3 12
-17 12 -33z"/>
<path d="M326 1175 c-9 -44 -2 -55 32 -55 23 0 28 5 30 28 1 20 -1 23 -8 12
-8 -13 -11 -12 -24 5 -20 26 -20 33 2 38 13 4 13 5 -4 6 -17 1 -23 -6 -28 -34z
m32 -33 c2 -7 -3 -12 -12 -12 -9 0 -16 7 -16 16 0 17 22 14 28 -4z"/>
<path d="M406 1175 c-9 -44 -2 -55 32 -55 23 0 28 5 30 28 1 20 -1 23 -8 12
-8 -13 -11 -12 -24 5 -20 26 -20 33 2 38 13 4 13 5 -4 6 -17 1 -23 -6 -28 -34z
m32 -33 c2 -7 -3 -12 -12 -12 -9 0 -16 7 -16 16 0 17 22 14 28 -4z"/>
<path d="M639 1189 c-8 -16 -8 -28 0 -45 22 -49 71 -11 51 40 -12 32 -35 34
-51 5z m36 -24 c0 -16 -6 -30 -12 -32 -9 -3 -13 7 -13 32 0 25 4 35 13 33 6
-3 12 -17 12 -33z"/>
<path d="M724 1197 c-2 -7 -6 -27 -7 -43 -2 -26 2 -29 28 -32 27 -3 31 0 32
25 1 15 -1 22 -4 15 -4 -10 -9 -9 -24 4 -24 21 -24 31 -1 37 16 4 16 5 -1 6
-10 0 -20 -5 -23 -12z m27 -53 c12 -14 11 -16 -5 -13 -11 2 -21 10 -24 17 -5
17 13 15 29 -4z"/>
<path d="M796 1175 c-9 -44 -2 -55 32 -55 23 0 28 5 30 28 1 20 -1 23 -8 12
-8 -13 -11 -12 -24 5 -20 26 -20 33 2 38 13 4 13 5 -4 6 -17 1 -23 -6 -28 -34z
m32 -33 c2 -7 -3 -12 -12 -12 -9 0 -16 7 -16 16 0 17 22 14 28 -4z"/>
<path d="M876 1198 c-3 -7 -4 -26 -3 -43 2 -25 6 -30 27 -30 23 0 25 4 25 40
0 34 -3 40 -23 43 -12 2 -24 -3 -26 -10z m34 -13 c0 -8 -4 -15 -9 -15 -13 0
-22 16 -14 24 11 11 23 6 23 -9z m5 -34 c7 -12 -12 -24 -25 -16 -11 7 -4 25
10 25 5 0 11 -4 15 -9z"/>
<path d="M954 1196 c-12 -31 0 -71 23 -74 25 -4 38 26 29 64 -7 27 -43 34 -52
10z m41 -32 c0 -19 -5 -29 -15 -29 -16 0 -25 28 -16 51 10 25 31 10 31 -22z"/>
<path d="M1189 1183 c-15 -40 -8 -58 26 -61 27 -3 31 0 32 25 1 15 -1 22 -4
15 -4 -10 -9 -9 -24 4 -24 21 -24 31 -1 37 16 4 16 5 -1 6 -10 1 -22 -10 -28
-26z m32 -39 c12 -14 11 -16 -5 -13 -11 2 -21 10 -24 17 -5 17 13 15 29 -4z"/>
<path d="M1266 1175 c-9 -44 -2 -55 32 -55 23 0 28 5 30 28 1 20 -1 23 -8 12
-8 -13 -11 -12 -24 5 -20 26 -20 33 2 38 13 4 13 5 -4 6 -17 1 -23 -6 -28 -34z
m32 -33 c2 -7 -3 -12 -12 -12 -9 0 -16 7 -16 16 0 17 22 14 28 -4z"/>
<path d="M1340 1165 c0 -37 3 -45 18 -45 24 0 42 19 42 45 0 26 -18 45 -42 45
-15 0 -18 -8 -18 -45z m45 16 c7 -24 -4 -51 -21 -51 -9 0 -14 12 -14 35 0 38
24 50 35 16z"/>
<path d="M2360 1165 c0 -37 3 -45 18 -45 24 0 42 19 42 45 0 26 -18 45 -42 45
-15 0 -18 -8 -18 -45z m35 0 c0 -16 -6 -30 -12 -32 -9 -3 -13 7 -13 32 0 25 4
35 13 33 6 -3 12 -17 12 -33z"/>
<path d="M91 1186 c-1 -5 4 -25 11 -43 10 -29 10 -36 -2 -43 -11 -7 -11 -10
-2 -10 13 0 56 89 48 98 -3 3 -10 -8 -17 -24 l-11 -29 -13 30 c-7 17 -14 26
-14 21z"/>
<path d="M160 1186 c0 -4 12 -11 28 -17 l27 -11 -30 -13 c-37 -16 -29 -19 14
-4 35 12 40 24 14 32 -10 2 -26 8 -35 12 -10 4 -18 4 -18 1z"/>
<path d="M488 1178 c11 -13 11 -21 1 -40 -11 -21 -11 -22 4 -9 14 11 20 11 34
0 15 -13 15 -12 4 9 -10 18 -10 27 0 38 7 9 8 14 1 14 -6 0 -12 -6 -15 -12 -3
-10 -8 -9 -23 2 -17 14 -18 14 -6 -2z"/>
<path d="M550 1186 c0 -4 12 -11 28 -17 l27 -11 -30 -13 c-37 -16 -29 -19 14
-4 35 12 40 24 14 32 -10 2 -26 8 -35 12 -10 4 -18 4 -18 1z"/>
<path d="M1024 1182 c4 -7 14 -12 22 -12 21 0 17 -18 -7 -25 -11 -4 -19 -9
-16 -11 6 -6 67 17 67 26 0 4 -8 10 -17 13 -10 2 -27 8 -37 13 -14 5 -17 4
-12 -4z"/>
<path d="M1110 1183 c0 -7 5 -15 11 -18 7 -5 4 -14 -7 -26 -18 -20 -6 -27 13
-8 8 8 13 8 17 0 4 -6 12 -11 18 -11 6 0 3 9 -6 19 -11 12 -14 21 -7 26 6 3
11 11 11 17 0 7 -4 7 -13 -1 -10 -8 -17 -7 -25 1 -9 9 -12 9 -12 1z"/>
<path d="M1420 1181 c0 -5 10 -12 23 -15 l22 -7 -24 -10 c-13 -5 -22 -12 -19
-15 7 -6 58 17 58 27 0 4 -13 12 -30 18 -16 5 -30 6 -30 2z"/>
<path d="M1518 1181 l24 -6 -21 -19 c-28 -26 -26 -36 7 -35 21 0 23 2 9 8 -17
6 -17 8 3 34 l21 27 -33 -1 c-28 -1 -30 -2 -10 -8z"/>
<path d="M1656 1172 c-10 -30 4 -53 28 -50 31 4 30 62 -1 66 -14 2 -23 -3 -27
-16z m41 -8 c8 -22 -15 -44 -26 -25 -10 16 -4 41 10 41 5 0 12 -7 16 -16z"/>
<path d="M1988 1181 l24 -6 -21 -19 c-28 -26 -26 -36 7 -35 21 0 23 2 9 7 -16
7 -16 9 -3 27 22 29 20 35 -11 34 -27 -1 -27 -1 -5 -8z"/>
<path d="M2126 1172 c-10 -30 4 -53 28 -50 31 4 30 62 -1 66 -14 2 -23 -3 -27
-16z m41 -8 c8 -22 -15 -44 -26 -25 -10 16 -4 41 10 41 5 0 12 -7 16 -16z"/>
<path d="M2834 1176 c-10 -26 1 -51 22 -54 24 -3 38 20 29 49 -7 22 -43 25
-51 5z m39 -9 c3 -8 1 -20 -4 -28 -11 -19 -34 3 -26 25 8 20 23 21 30 3z"/>
<path d="M2460 1169 c0 -5 5 -7 10 -4 6 3 10 8 10 11 0 2 -4 4 -10 4 -5 0 -10
-5 -10 -11z"/>
<path d="M2610 1170 c0 -5 5 -10 10 -10 6 0 10 5 10 10 0 6 -4 10 -10 10 -5 0
-10 -4 -10 -10z"/>
<path d="M2293 1163 c9 -2 25 -2 35 0 9 3 1 5 -18 5 -19 0 -27 -2 -17 -5z"/>
<path d="M2998 1163 c12 -2 30 -2 40 0 9 3 -1 5 -23 4 -22 0 -30 -2 -17 -4z"/>
<path d="M2293 1143 c9 -2 25 -2 35 0 9 3 1 5 -18 5 -19 0 -27 -2 -17 -5z"/>
<path d="M2998 1143 c12 -2 30 -2 40 0 9 3 -1 5 -23 4 -22 0 -30 -2 -17 -4z"/>
<path d="M2457 1120 c-3 -11 -2 -20 3 -20 12 0 21 28 11 35 -5 2 -11 -4 -14
-15z"/>
<path d="M2537 1121 c-4 -17 -3 -21 5 -13 5 5 8 16 6 23 -3 8 -7 3 -11 -10z"/>
<path d="M2617 1134 c-4 -4 -7 -14 -7 -23 0 -11 3 -12 11 -4 6 6 10 16 7 23
-2 6 -7 8 -11 4z"/>
<path d="M1201 1015 c1 -31 7 -55 13 -55 7 0 11 22 11 55 0 38 -4 55 -13 55
-9 0 -12 -15 -11 -55z"/>
<path d="M1828 1063 c7 -3 12 -23 12 -48 0 -25 -5 -45 -12 -48 -8 -3 -6 -6 5
-6 14 -1 17 8 17 54 0 46 -3 55 -17 54 -11 0 -13 -3 -5 -6z"/>
<path d="M1979 1061 c17 -11 17 -91 -1 -102 -10 -7 -9 -9 5 -9 11 0 17 8 17
23 0 13 5 28 11 34 8 8 8 13 0 17 -6 4 -11 16 -11 27 0 11 -7 19 -17 19 -14 0
-15 -2 -4 -9z"/>
<path d="M2059 1062 c17 -12 17 -92 -1 -104 -10 -8 -10 -9 2 -5 8 2 17 14 19
28 1 13 8 27 15 31 8 6 8 8 -1 8 -6 0 -13 10 -15 22 -2 12 -10 23 -18 25 -12
4 -12 3 -1 -5z"/>
<path d="M101 1044 c0 -11 3 -14 6 -6 3 7 2 16 -1 19 -3 4 -6 -2 -5 -13z"/>
<path d="M120 1045 c0 -8 5 -15 10 -15 6 0 10 7 10 15 0 8 -4 15 -10 15 -5 0
-10 -7 -10 -15z"/>
<path d="M742 1030 c0 -19 2 -27 5 -17 2 9 2 25 0 35 -3 9 -5 1 -5 -18z"/>
<path d="M821 1052 c-1 -7 -5 -11 -9 -8 -5 3 -9 -1 -9 -9 0 -23 26 -26 38 -3
7 12 7 18 1 14 -6 -3 -13 0 -15 6 -4 10 -6 10 -6 0z"/>
<path d="M891 1048 c-1 -10 -5 -18 -11 -18 -5 0 -7 -7 -4 -15 4 -8 1 -15 -5
-15 -6 0 -8 -7 -5 -15 5 -12 10 -13 20 -4 11 9 14 9 14 0 0 -8 4 -8 14 1 8 7
12 17 9 22 -3 4 1 12 8 17 10 6 10 9 2 9 -7 0 -10 7 -7 18 4 13 3 13 -7 -3
-12 -19 -12 -19 -20 0 -7 17 -8 18 -8 3z m19 -38 c0 -5 -4 -10 -10 -10 -5 0
-10 5 -10 10 0 6 5 10 10 10 6 0 10 -4 10 -10z"/>
<path d="M957 1053 c-14 -14 -6 -34 18 -45 33 -15 32 -26 -2 -31 l-28 -4 28
-2 c33 -1 48 26 24 44 -9 7 -14 15 -10 19 4 4 0 4 -10 0 -9 -3 -17 -3 -17 0 0
4 10 11 23 16 21 8 21 9 1 9 -11 1 -24 -2 -27 -6z"/>
<path d="M1031 1041 c-23 -42 -2 -91 37 -91 12 0 9 4 -8 13 -28 14 -38 51 -20
73 14 16 40 19 40 4 0 -5 -6 -10 -14 -10 -8 0 -16 -6 -19 -12 -7 -21 4 -38 25
-38 16 0 19 6 16 38 -2 29 -8 38 -25 40 -14 2 -26 -4 -32 -17z m49 -36 c0 -8
-4 -15 -9 -15 -13 0 -22 16 -14 24 11 11 23 6 23 -9z"/>
<path d="M1121 1044 c0 -11 3 -14 6 -6 3 7 2 16 -1 19 -3 4 -6 -2 -5 -13z"/>
<path d="M1141 1044 c0 -11 3 -14 6 -6 3 7 2 16 -1 19 -3 4 -6 -2 -5 -13z"/>
<path d="M1261 1013 c2 -47 2 -47 9 -13 l7 35 12 -32 c18 -47 31 -41 30 15 -2
44 -2 45 -8 12 l-6 -35 -14 33 c-19 46 -31 40 -30 -15z"/>
<path d="M1424 1047 c-3 -9 -4 -28 -2 -44 4 -38 44 -46 54 -9 3 13 4 33 2 43
-4 22 -46 30 -54 10z m41 -33 c0 -19 -5 -29 -15 -29 -16 0 -25 28 -16 51 10
25 31 10 31 -22z"/>
<path d="M1506 1051 c-4 -5 3 -7 14 -4 21 5 28 -11 10 -22 -5 -3 -9 -18 -9
-33 1 -21 2 -22 6 -7 3 11 9 24 14 30 16 17 10 45 -10 45 -11 0 -22 -4 -25 -9z"/>
<path d="M1570 1015 c0 -25 5 -45 10 -45 6 0 10 12 10 28 0 21 2 24 10 12 14
-21 13 5 0 31 -18 32 -30 21 -30 -26z"/>
<path d="M1619 1030 c-1 -16 -2 -35 -3 -42 -1 -6 4 -13 10 -15 7 -2 11 13 10
42 0 50 -15 63 -17 15z"/>
<path d="M1742 1048 c-28 -28 -2 -88 33 -74 12 4 15 16 13 43 -3 40 -23 54
-46 31z m33 -33 c0 -32 -19 -45 -29 -19 -9 22 3 56 17 51 7 -2 12 -16 12 -32z"/>
<path d="M1755 1020 c-3 -5 -1 -10 4 -10 6 0 11 5 11 10 0 6 -2 10 -4 10 -3 0
-8 -4 -11 -10z"/>
<path d="M2144 1009 c-14 -28 -23 -53 -20 -56 5 -5 30 39 46 82 16 42 2 28
-26 -26z"/>
<path d="M2231 1052 c-1 -7 -5 -11 -9 -8 -5 3 -9 -1 -9 -9 0 -23 26 -26 38 -3
7 12 7 18 1 14 -6 -3 -13 0 -15 6 -4 10 -6 10 -6 0z"/>
<path d="M2301 1048 c-1 -10 -6 -18 -12 -18 -5 0 -7 -5 -3 -11 3 -6 0 -15 -7
-20 -11 -7 -11 -9 -1 -9 8 0 10 -5 6 -12 -5 -9 -2 -9 9 1 12 9 17 10 17 2 0
-8 4 -8 14 1 8 7 12 17 9 22 -3 4 1 12 8 17 10 6 10 9 2 9 -7 0 -10 7 -7 18 4
13 3 13 -7 -3 -12 -19 -12 -19 -20 0 -7 17 -8 18 -8 3z m19 -38 c0 -5 -4 -10
-10 -10 -5 0 -10 5 -10 10 0 6 5 10 10 10 6 0 10 -4 10 -10z"/>
<path d="M2381 1052 c-1 -7 -6 -10 -11 -7 -6 4 -6 -4 1 -19 9 -18 14 -22 24
-13 13 12 17 39 4 31 -4 -2 -10 2 -12 8 -4 10 -6 10 -6 0z"/>
<path d="M2461 1052 c-1 -7 -6 -10 -11 -7 -6 4 -6 -4 1 -19 9 -18 14 -22 24
-13 13 12 17 39 4 31 -4 -2 -10 2 -12 8 -4 10 -6 10 -6 0z"/>
<path d="M2541 1052 c-1 -7 -6 -10 -11 -7 -6 4 -6 -4 1 -19 9 -18 14 -22 24
-13 13 12 17 39 4 31 -4 -2 -10 2 -12 8 -4 10 -6 10 -6 0z"/>
<path d="M2621 1052 c-1 -7 -5 -11 -9 -8 -5 3 -9 -1 -9 -9 0 -23 26 -26 38 -3
7 12 7 18 1 14 -6 -3 -13 0 -15 6 -4 10 -6 10 -6 0z"/>
<path d="M2690 1030 c0 -16 5 -30 10 -30 6 0 10 14 10 30 0 17 -4 30 -10 30
-5 0 -10 -13 -10 -30z"/>
<path d="M2770 1030 c0 -16 5 -30 10 -30 6 0 10 14 10 30 0 17 -4 30 -10 30
-5 0 -10 -13 -10 -30z"/>
<path d="M2931 1052 c-1 -7 -5 -11 -9 -8 -13 8 -10 -19 3 -31 10 -9 15 -5 24
13 6 14 7 23 2 20 -5 -4 -12 0 -14 6 -4 10 -6 10 -6 0z"/>
<path d="M3010 1016 c-27 -65 -24 -71 6 -13 14 27 23 51 20 54 -3 3 -15 -15
-26 -41z"/>
<path d="M500 1030 c0 -5 5 -10 10 -10 6 0 10 5 10 10 0 6 -4 10 -10 10 -5 0
-10 -4 -10 -10z"/>
<path d="M1340 1031 c0 -5 10 -12 23 -15 l22 -7 -22 -9 c-34 -14 -28 -21 7 -9
17 6 30 15 30 19 0 4 -13 13 -30 19 -16 5 -30 6 -30 2z"/>
<path d="M1670 1030 c0 -5 5 -10 10 -10 6 0 10 5 10 10 0 6 -4 10 -10 10 -5 0
-10 -4 -10 -10z"/>
<path d="M580 1019 c0 -5 5 -7 10 -4 6 3 10 8 10 11 0 2 -4 4 -10 4 -5 0 -10
-5 -10 -11z"/>
<path d="M1910 1020 c0 -5 5 -10 10 -10 6 0 10 5 10 10 0 6 -4 10 -10 10 -5 0
-10 -4 -10 -10z"/>
<path d="M400 1013 c0 -5 15 -9 33 -10 26 -1 28 0 12 7 -26 11 -45 12 -45 3z"/>
<path d="M648 1013 c12 -2 30 -2 40 0 9 3 -1 5 -23 4 -22 0 -30 -2 -17 -4z"/>
<path d="M348 1003 c7 -3 16 -2 19 1 4 3 -2 6 -13 5 -11 0 -14 -3 -6 -6z"/>
<path d="M2848 1003 c7 -3 16 -2 19 1 4 3 -2 6 -13 5 -11 0 -14 -3 -6 -6z"/>
<path d="M648 993 c12 -2 30 -2 40 0 9 3 -1 5 -23 4 -22 0 -30 -2 -17 -4z"/>
<path d="M190 980 c0 -5 5 -10 10 -10 6 0 10 5 10 10 0 6 -4 10 -10 10 -5 0
-10 -4 -10 -10z"/>
<path d="M266 974 c-4 -9 -4 -19 -1 -22 2 -3 7 3 11 12 4 9 4 19 1 22 -2 3 -7
-3 -11 -12z"/>
<path d="M500 980 c0 -5 5 -10 10 -10 6 0 10 5 10 10 0 6 -4 10 -10 10 -5 0
-10 -4 -10 -10z"/>
<path d="M577 970 c-3 -11 -2 -20 3 -20 12 0 21 28 11 35 -5 2 -11 -4 -14 -15z"/>
<path d="M1670 980 c0 -5 5 -10 10 -10 6 0 10 5 10 10 0 6 -4 10 -10 10 -5 0
-10 -4 -10 -10z"/>
<path d="M1907 970 c-3 -11 -2 -20 3 -20 12 0 21 28 11 35 -5 2 -11 -4 -14
-15z"/>
<path d="M577 900 c-9 -11 -13 -20 -8 -20 6 0 12 -15 14 -32 l4 -33 1 32 c1
21 8 33 20 36 16 4 16 5 0 6 -10 0 -18 5 -18 10 0 5 8 12 18 14 13 4 13 5 2 6
-9 0 -23 -8 -33 -19z"/>
<path d="M660 894 c-13 -33 -13 -47 3 -67 10 -15 12 -9 12 38 0 30 -1 55 -3
55 -1 0 -7 -12 -12 -26z"/>
<path d="M1031 873 c-1 -50 0 -53 24 -53 18 0 26 7 31 24 7 31 -1 46 -26 46
-10 0 -21 8 -23 18 -3 9 -5 -7 -6 -35z m42 -6 c3 -8 1 -20 -4 -28 -11 -19 -34
3 -26 25 8 20 23 21 30 3z"/>
<path d="M1121 865 c0 -37 4 -55 12 -55 8 0 12 19 12 55 0 35 -4 55 -11 55 -8
0 -12 -21 -13 -55z"/>
<path d="M1361 899 c6 -12 8 -37 5 -58 -5 -26 -4 -32 3 -21 19 27 11 100 -10
100 -6 0 -5 -9 2 -21z"/>
<path d="M1517 900 c-9 -11 -13 -20 -8 -20 6 0 12 -15 14 -32 l4 -33 1 32 c1
21 8 33 20 36 16 4 16 5 0 6 -10 0 -18 5 -18 10 0 5 8 12 18 14 13 4 13 5 2 6
-9 0 -23 -8 -33 -19z"/>
<path d="M1759 899 c-12 -23 -4 -89 11 -89 6 0 5 10 -1 24 -8 18 -8 33 -1 55
13 36 8 41 -9 10z"/>
<path d="M1814 870 c0 -27 4 -50 9 -50 4 0 7 7 7 17 0 14 2 14 20 -2 21 -19
29 -8 8 13 -8 8 -8 15 2 27 15 18 0 21 -18 3 -9 -9 -12 -6 -12 15 0 15 -4 27
-9 27 -5 0 -8 -22 -7 -50z"/>
<path d="M2523 870 c-1 -30 1 -47 4 -37 5 21 22 22 29 2 4 -8 10 -15 16 -15 5
0 2 10 -6 22 -12 17 -13 25 -4 37 10 13 10 14 -2 4 -21 -19 -28 -16 -33 15 -2
15 -4 2 -4 -28z"/>
<path d="M2680 905 c-5 -55 -4 -85 3 -85 4 0 7 7 7 17 0 14 2 14 20 -2 21 -19
29 -8 8 13 -8 8 -8 15 2 27 8 9 8 15 2 15 -6 0 -14 -6 -19 -12 -5 -9 -10 -3
-14 17 -5 20 -7 24 -9 10z"/>
<path d="M2925 865 c0 -34 4 -50 10 -44 5 5 9 25 9 44 0 19 -4 39 -9 45 -6 6
-10 -11 -10 -45z"/>
<path d="M492 894 c-7 -8 -8 -14 -2 -14 5 0 10 -13 10 -30 0 -25 4 -30 23 -29
16 1 18 2 5 6 -11 3 -18 14 -18 29 0 16 6 24 18 25 13 0 14 2 2 6 -8 3 -17 9
-20 13 -3 4 -11 2 -18 -6z"/>
<path d="M731 894 c0 -11 3 -14 6 -6 3 7 2 16 -1 19 -3 4 -6 -2 -5 -13z"/>
<path d="M751 894 c0 -11 3 -14 6 -6 3 7 2 16 -1 19 -3 4 -6 -2 -5 -13z"/>
<path d="M799 893 c5 -10 16 -36 25 -57 9 -22 19 -37 22 -34 6 6 -43 108 -52
108 -2 0 -1 -8 5 -17z"/>
<path d="M968 903 c6 -2 12 -20 12 -38 0 -18 -6 -36 -12 -38 -7 -3 1 -5 17 -5
17 0 24 2 18 5 -8 2 -13 22 -13 44 0 31 -4 39 -17 38 -11 0 -13 -3 -5 -6z"/>
<path d="M1180 865 c0 -25 5 -45 10 -45 6 0 10 9 10 20 0 11 7 20 15 20 8 0
15 -9 15 -20 0 -11 5 -20 10 -20 6 0 10 20 10 45 0 25 -4 45 -10 45 -5 0 -10
-9 -10 -20 0 -11 -7 -20 -15 -20 -8 0 -15 9 -15 20 0 11 -4 20 -10 20 -5 0
-10 -20 -10 -45z"/>
<path d="M1270 895 c0 -8 5 -15 10 -15 6 0 10 7 10 15 0 8 -4 15 -10 15 -5 0
-10 -7 -10 -15z"/>
<path d="M1301 894 c0 -11 3 -14 6 -6 3 7 2 16 -1 19 -3 4 -6 -2 -5 -13z"/>
<path d="M1977 903 c-14 -13 -7 -74 8 -79 21 -8 45 14 45 40 0 34 -34 59 -53
39z m33 -39 c0 -24 -4 -34 -12 -32 -24 8 -22 68 2 68 5 0 10 -16 10 -36z"/>
<path d="M2138 903 c6 -2 12 -20 12 -38 0 -18 -6 -36 -12 -38 -7 -3 1 -5 17
-5 17 0 24 2 18 5 -8 2 -13 22 -13 44 0 31 -4 39 -17 38 -11 0 -13 -3 -5 -6z"/>
<path d="M2222 903 c27 -4 28 -5 13 -33 -8 -16 -15 -35 -15 -42 1 -15 24 26
34 60 7 20 4 22 -26 21 -30 -2 -30 -2 -6 -6z"/>
<path d="M2291 896 c-7 -8 -11 -27 -9 -43 2 -22 8 -28 28 -28 20 0 25 5 25 25
0 17 -7 26 -25 31 l-25 6 25 11 c16 7 19 11 9 11 -9 1 -22 -5 -28 -13z m35
-37 c10 -17 -13 -36 -27 -22 -12 12 -4 33 11 33 5 0 12 -5 16 -11z"/>
<path d="M2380 870 c6 -31 4 -40 -9 -43 -9 -3 0 -5 19 -5 19 0 29 2 23 5 -8 2
-13 22 -13 44 0 26 -4 39 -14 39 -10 0 -12 -9 -6 -40z"/>
<path d="M171 838 c1 -29 3 -45 6 -35 2 9 13 17 23 17 21 0 33 25 25 51 -4 12
-16 19 -31 19 -23 0 -24 -3 -23 -52z m46 26 c8 -21 -13 -42 -28 -27 -13 13 -5
43 11 43 6 0 13 -7 17 -16z"/>
<path d="M261 850 c1 -34 2 -34 8 -6 3 16 15 33 26 37 17 6 15 7 -7 6 -25 -1
-28 -5 -27 -37z"/>
<path d="M338 883 c19 -7 15 -51 -5 -56 -10 -3 -2 -5 17 -5 19 0 29 2 23 5 -7
2 -13 18 -13 34 0 21 -5 29 -17 28 -11 0 -13 -3 -5 -6z"/>
<path d="M412 853 c1 -37 1 -37 5 -5 3 18 10 32 18 32 8 0 16 -14 18 -32 l5
-33 -2 35 c-1 28 -5 36 -23 38 -21 3 -23 -1 -21 -35z"/>
<path d="M878 878 c11 -13 11 -21 1 -40 -11 -21 -11 -22 4 -9 14 11 20 11 34
0 15 -13 15 -12 4 9 -10 18 -10 27 0 38 7 9 8 14 1 14 -6 0 -12 -6 -15 -12 -3
-10 -8 -9 -23 2 -17 14 -18 14 -6 -2z"/>
<path d="M1580 875 c-15 -18 -7 -43 16 -52 24 -9 46 24 33 48 -12 23 -32 24
-49 4z m40 -20 c0 -16 -6 -25 -15 -25 -9 0 -15 9 -15 25 0 16 6 25 15 25 9 0
15 -9 15 -25z"/>
<path d="M1672 853 c1 -37 1 -37 5 -6 3 23 10 33 26 36 18 4 17 5 -5 6 -26 1
-28 -2 -26 -36z"/>
<path d="M2434 882 c4 -7 14 -12 22 -12 21 0 17 -18 -7 -25 -11 -4 -19 -9 -16
-11 6 -6 67 17 67 26 0 4 -8 10 -17 13 -10 2 -27 8 -37 13 -14 5 -17 4 -12 -4z"/>
<path d="M2770 875 c0 -8 -5 -15 -11 -15 -6 0 -3 -7 5 -16 15 -14 17 -14 32 0
14 14 14 16 0 16 -10 0 -13 6 -10 15 4 8 1 15 -5 15 -6 0 -11 -7 -11 -15z"/>
<path d="M2851 878 c0 -9 -9 -19 -18 -21 -17 -4 -17 -5 0 -6 9 0 17 -7 17 -13
0 -9 3 -10 8 -2 4 6 14 14 22 17 12 4 12 6 -2 6 -9 1 -19 9 -21 19 -4 15 -5
15 -6 0z"/>
<path d="M1440 870 c0 -5 5 -10 10 -10 6 0 10 5 10 10 0 6 -4 10 -10 10 -5 0
-10 -4 -10 -10z"/>
<path d="M2610 870 c0 -5 5 -10 10 -10 6 0 10 5 10 10 0 6 -4 10 -10 10 -5 0
-10 -4 -10 -10z"/>
<path d="M1898 863 c12 -2 30 -2 40 0 9 3 -1 5 -23 4 -22 0 -30 -2 -17 -4z"/>
<path d="M1898 843 c12 -2 30 -2 40 0 9 3 -1 5 -23 4 -22 0 -30 -2 -17 -4z"/>
<path d="M1440 818 c0 -19 2 -20 10 -8 13 19 13 30 0 30 -5 0 -10 -10 -10 -22z"/>
<path d="M2067 821 c-4 -17 -3 -21 5 -13 5 5 8 16 6 23 -3 8 -7 3 -11 -10z"/>
<path d="M2616 824 c-4 -9 -4 -19 -1 -22 2 -3 7 3 11 12 4 9 4 19 1 22 -2 3
-7 -3 -11 -12z"/>
<path d="M562 720 c0 -39 2 -47 7 -26 9 41 31 46 31 7 0 -17 4 -31 8 -31 5 0
8 10 6 23 -1 12 -3 28 -3 35 -1 6 -10 12 -20 12 -11 0 -22 8 -24 18 -3 9 -5
-8 -5 -38z"/>
<path d="M819 749 c-12 -23 -4 -89 11 -89 6 0 5 10 -1 24 -8 18 -8 33 -1 55
13 36 8 41 -9 10z"/>
<path d="M875 720 c0 -27 3 -50 8 -50 4 0 7 7 7 17 0 14 2 14 20 -2 21 -19 29
-8 8 13 -8 8 -8 15 2 27 15 18 0 21 -18 3 -9 -9 -12 -6 -12 15 0 15 -3 27 -7
27 -5 0 -8 -22 -8 -50z"/>
<path d="M1264 720 c1 -48 2 -51 26 -48 34 4 43 57 11 65 -12 3 -21 12 -21 19
0 8 -4 14 -8 14 -5 0 -8 -23 -8 -50z m46 -15 c0 -16 -6 -25 -15 -25 -9 0 -15
9 -15 25 0 16 6 25 15 25 9 0 15 -9 15 -25z"/>
<path d="M1360 715 c0 -46 3 -55 18 -54 10 0 12 3 5 6 -8 3 -13 23 -13 48 0
25 5 45 13 48 7 3 5 6 -5 6 -15 1 -18 -8 -18 -54z"/>
<path d="M1425 720 c0 -28 3 -50 8 -50 4 0 7 7 7 17 0 14 2 14 20 -2 21 -19
29 -8 8 13 -8 8 -8 15 2 27 15 18 0 21 -18 3 -9 -9 -12 -6 -12 15 0 15 -3 27
-7 27 -5 0 -8 -23 -8 -50z"/>
<path d="M1515 762 c15 -11 17 -85 2 -94 -8 -5 -7 -8 6 -8 14 0 17 9 17 55 0
46 -3 55 -17 55 -10 0 -14 -4 -8 -8z"/>
<path d="M1831 749 c6 -12 8 -37 5 -58 -5 -26 -4 -32 3 -21 19 27 11 100 -10
100 -6 0 -5 -9 2 -21z"/>
<path d="M412 744 c-7 -8 -8 -14 -3 -14 5 0 11 -12 13 -27 2 -18 9 -28 21 -29
12 -1 13 -1 2 3 -22 7 -20 53 3 54 13 0 14 2 2 6 -8 3 -17 9 -20 13 -3 4 -11
2 -18 -6z"/>
<path d="M944 748 c-4 -7 2 -18 14 -26 12 -8 22 -23 22 -33 0 -21 25 -26 36
-7 4 7 -2 18 -14 26 -12 8 -22 23 -22 33 0 21 -25 26 -36 7z m26 -8 c0 -5 -4
-10 -10 -10 -5 0 -10 5 -10 10 0 6 5 10 10 10 6 0 10 -4 10 -10z m40 -50 c0
-5 -4 -10 -10 -10 -5 0 -10 5 -10 10 0 6 5 10 10 10 6 0 10 -4 10 -10z"/>
<path d="M1035 748 c-2 -7 -3 -26 -2 -43 2 -25 6 -30 27 -30 22 0 25 4 23 35
0 19 -1 38 -2 43 -2 12 -41 8 -46 -5z m35 -13 c0 -8 -7 -15 -15 -15 -16 0 -20
12 -8 23 11 12 23 8 23 -8z m0 -40 c0 -8 -7 -15 -15 -15 -8 0 -15 7 -15 15 0
8 7 15 15 15 8 0 15 -7 15 -15z"/>
<path d="M1109 739 c-8 -16 -8 -28 0 -45 22 -49 71 -11 51 40 -12 32 -35 34
-51 5z m39 -27 c2 -24 -1 -32 -12 -32 -12 0 -16 10 -16 36 0 45 24 42 28 -4z"/>
<path d="M1190 750 c0 -5 6 -7 14 -4 17 6 31 -12 16 -21 -5 -3 -9 -18 -9 -33
l2 -27 4 25 c3 14 10 28 15 31 17 11 1 39 -22 39 -11 0 -20 -4 -20 -10z"/>
<path d="M1668 753 c6 -2 12 -20 12 -38 0 -18 -6 -36 -12 -38 -7 -3 1 -5 17
-5 17 0 24 2 18 5 -8 2 -13 22 -13 44 0 31 -4 39 -17 38 -11 0 -13 -3 -5 -6z"/>
<path d="M1742 748 c-26 -26 -8 -83 24 -76 15 2 19 12 19 43 0 42 -19 57 -43
33z m33 -33 c0 -16 -5 -30 -11 -32 -13 -4 -25 33 -17 53 9 24 28 10 28 -21z"/>
<path d="M1755 720 c-3 -5 -1 -10 4 -10 6 0 11 5 11 10 0 6 -2 10 -4 10 -3 0
-8 -4 -11 -10z"/>
<path d="M1981 738 c-19 -52 -22 -68 -12 -68 6 0 11 5 11 10 0 6 9 10 20 10
11 0 20 -5 20 -12 0 -6 3 -9 6 -6 8 8 -17 88 -28 88 -5 0 -12 -10 -17 -22z
m29 -30 c0 -5 -4 -8 -10 -8 -5 0 -10 10 -10 23 0 18 2 19 10 7 5 -8 10 -18 10
-22z"/>
<path d="M2212 748 c-28 -28 -2 -88 33 -74 12 4 15 16 13 43 -3 40 -23 54 -46
31z m33 -33 c0 -32 -19 -45 -29 -19 -9 22 3 56 17 51 7 -2 12 -16 12 -32z"/>
<path d="M2225 720 c-3 -5 -1 -10 4 -10 6 0 11 5 11 10 0 6 -2 10 -4 10 -3 0
-8 -4 -11 -10z"/>
<path d="M2367 753 c-14 -13 -7 -74 8 -79 21 -8 45 14 45 40 0 34 -34 59 -53
39z m35 -20 c6 -27 -2 -55 -15 -50 -7 2 -14 11 -15 21 -8 37 21 65 30 29z"/>
<path d="M2380 720 c0 -5 5 -10 11 -10 5 0 7 5 4 10 -3 6 -8 10 -11 10 -2 0
-4 -4 -4 -10z"/>
<path d="M2451 728 c-19 -30 -19 -33 -3 -37 9 -2 20 -8 25 -15 12 -19 23 10
19 49 -5 43 -14 44 -41 3z m23 -13 c-6 -16 -24 -21 -24 -7 0 11 11 22 21 22 5
0 6 -7 3 -15z"/>
<path d="M2590 716 c0 -44 1 -46 29 -46 27 0 47 21 33 35 -3 3 -7 16 -7 28 0
16 -7 23 -27 25 -27 3 -28 2 -28 -42z m48 16 c2 -7 -3 -12 -12 -12 -9 0 -16 7
-16 16 0 17 22 14 28 -4z m2 -37 c0 -8 -7 -15 -15 -15 -8 0 -15 7 -15 15 0 8
7 15 15 15 8 0 15 -7 15 -15z"/>
<path d="M251 688 c1 -29 3 -46 6 -37 2 10 13 19 23 22 42 11 32 67 -11 67
-16 0 -19 -7 -18 -52z m39 16 c0 -31 -23 -28 -28 4 -2 15 2 22 12 22 11 0 16
-9 16 -26z"/>
<path d="M324 718 c3 -13 5 -29 5 -35 1 -7 12 -13 26 -13 22 0 25 4 24 38 -1
35 -2 35 -8 8 -9 -41 -31 -46 -31 -7 0 17 -4 31 -10 31 -5 0 -8 -10 -6 -22z"/>
<path d="M489 724 c-17 -21 0 -48 32 -51 23 -1 23 -1 2 4 -16 3 -23 12 -23 28
0 17 7 25 23 28 21 4 21 4 1 6 -12 0 -27 -6 -35 -15z"/>
<path d="M658 733 c12 -2 22 -8 22 -13 0 -5 -10 -10 -22 -12 -33 -4 -29 -32 5
-36 27 -3 28 -1 25 30 -2 27 -7 33 -28 35 -22 1 -22 1 -2 -4z m22 -43 c0 -5
-7 -10 -15 -10 -8 0 -15 5 -15 10 0 6 7 10 15 10 8 0 15 -4 15 -10z"/>
<path d="M731 700 c1 -34 2 -34 8 -6 3 16 15 33 26 37 17 6 15 7 -7 6 -25 -1
-28 -5 -27 -37z"/>
<path d="M2071 728 c0 -9 -9 -19 -18 -21 -17 -4 -17 -5 0 -6 9 0 17 -7 17 -13
0 -9 3 -10 8 -2 4 6 14 14 22 17 12 4 12 6 -2 6 -9 1 -19 9 -21 19 -4 15 -5
15 -6 0z"/>
<path d="M2690 725 c0 -8 -5 -15 -11 -15 -6 0 -3 -7 5 -16 15 -14 17 -14 32 0
14 14 14 16 0 16 -10 0 -13 6 -10 15 4 8 1 15 -5 15 -6 0 -11 -7 -11 -15z"/>
<path d="M1910 720 c0 -5 5 -10 10 -10 6 0 10 5 10 10 0 6 -4 10 -10 10 -5 0
-10 -4 -10 -10z"/>
<path d="M2138 713 c12 -2 30 -2 40 0 9 3 -1 5 -23 4 -22 0 -30 -2 -17 -4z"/>
<path d="M2763 713 c9 -2 25 -2 35 0 9 3 1 5 -18 5 -19 0 -27 -2 -17 -5z"/>
<path d="M2138 693 c12 -2 30 -2 40 0 9 3 -1 5 -23 4 -22 0 -30 -2 -17 -4z"/>
<path d="M2763 693 c9 -2 25 -2 35 0 9 3 1 5 -18 5 -19 0 -27 -2 -17 -5z"/>
<path d="M1907 670 c-3 -11 -2 -20 3 -20 12 0 21 28 11 35 -5 2 -11 -4 -14
-15z"/>
<path d="M2300 680 c0 -5 5 -10 10 -10 6 0 10 5 10 10 0 6 -4 10 -10 10 -5 0
-10 -4 -10 -10z"/>
<path d="M2537 671 c-4 -17 -3 -21 5 -13 5 5 8 16 6 23 -3 8 -7 3 -11 -10z"/>
<path d="M808 609 c6 -7 12 -29 12 -49 0 -20 -6 -42 -12 -49 -11 -11 -10 -13
2 -9 8 3 17 15 19 29 1 13 8 27 15 31 8 6 8 8 -1 8 -6 0 -13 10 -15 22 -2 12
-10 23 -18 26 -12 4 -13 2 -2 -9z"/>
<path d="M879 611 c8 -5 14 -26 14 -51 0 -25 -6 -46 -14 -51 -11 -7 -10 -9 3
-9 11 0 20 11 24 28 4 15 12 30 18 34 8 6 8 8 0 8 -7 0 -15 11 -18 25 -4 15
-13 25 -24 25 -13 0 -14 -2 -3 -9z"/>
<path d="M412 598 c-28 -28 -2 -88 33 -74 12 4 15 16 13 43 -3 40 -23 54 -46
31z m33 -33 c0 -16 -5 -30 -11 -32 -13 -4 -25 33 -17 53 9 24 28 10 28 -21z"/>
<path d="M425 570 c-3 -5 -1 -10 4 -10 6 0 11 5 11 10 0 6 -2 10 -4 10 -3 0
-8 -4 -11 -10z"/>
<path d="M567 603 c-14 -13 -7 -74 8 -79 21 -8 45 14 45 40 0 34 -34 59 -53
39z m33 -39 c0 -24 -4 -34 -12 -32 -24 8 -22 68 2 68 5 0 10 -16 10 -36z"/>
<path d="M640 600 c0 -5 6 -7 14 -4 28 11 28 -18 0 -47 l-28 -29 35 1 c25 1
28 3 11 6 l-24 5 22 23 c13 14 20 31 17 39 -7 17 -47 22 -47 6z"/>
<path d="M971 558 c-29 -69 -21 -71 12 -3 15 30 23 55 18 55 -4 0 -18 -23 -30
-52z"/>
<path d="M1051 602 c-1 -7 -6 -10 -11 -7 -6 4 -6 -4 1 -19 9 -18 14 -22 24
-13 13 12 17 39 4 31 -4 -2 -10 2 -12 8 -4 10 -6 10 -6 0z"/>
<path d="M1131 602 c-1 -7 -5 -11 -9 -8 -13 8 -10 -19 3 -31 10 -9 15 -5 24
13 6 14 7 23 2 20 -5 -4 -12 0 -14 6 -4 10 -6 10 -6 0z"/>
<path d="M1211 602 c-1 -7 -5 -11 -9 -8 -13 8 -10 -19 3 -31 10 -9 15 -5 24
13 6 14 7 23 2 20 -5 -4 -12 0 -14 6 -4 10 -6 10 -6 0z"/>
<path d="M1291 602 c-1 -7 -5 -11 -9 -8 -13 8 -10 -19 3 -31 10 -9 15 -5 24
13 6 14 7 23 2 20 -5 -4 -12 0 -14 6 -4 10 -6 10 -6 0z"/>
<path d="M1441 598 c-1 -10 -6 -18 -12 -18 -5 0 -7 -5 -3 -11 3 -6 0 -15 -7
-20 -11 -7 -11 -9 -1 -9 8 0 10 -5 6 -12 -5 -9 -2 -9 9 1 12 9 17 10 17 2 0
-8 4 -8 14 1 7 7 11 19 9 25 -3 8 3 13 16 13 12 0 21 -4 21 -10 0 -5 -4 -10
-10 -10 -5 0 -6 -8 -3 -17 4 -11 8 -12 11 -5 2 7 8 12 13 12 6 0 7 -4 4 -10
-9 -15 4 -12 21 5 15 14 8 20 -18 16 -5 0 -8 3 -8 7 0 5 16 9 35 10 19 1 35
-3 35 -8 0 -6 -4 -10 -10 -10 -5 0 -6 -8 -3 -17 4 -11 8 -12 11 -5 2 7 8 12
13 12 6 0 7 -6 3 -12 -6 -10 -4 -10 7 0 16 14 53 16 44 2 -3 -5 -2 -10 4 -10
5 0 12 6 14 13 4 9 6 9 6 -1 1 -10 4 -10 15 0 8 7 12 17 9 22 -3 4 -1 11 4 15
6 3 7 15 2 26 -6 17 -8 17 -8 3 -1 -10 -6 -18 -12 -18 -6 0 -9 7 -5 15 3 8 1
15 -4 15 -6 0 -10 -7 -10 -15 0 -8 -6 -15 -12 -15 -9 0 -8 -3 2 -9 8 -6 18 -7
22 -5 4 3 8 1 8 -4 0 -5 -16 -9 -35 -10 -32 -1 -48 11 -26 20 4 2 5 12 0 23
-6 17 -8 17 -8 3 -1 -10 -5 -18 -11 -18 -5 0 -7 8 -4 18 5 16 5 16 -6 0 -6
-10 -20 -18 -32 -18 -15 0 -19 5 -14 18 5 15 5 15 -8 -1 -14 -18 -14 -18 -19
0 -4 16 -5 16 -6 1 -1 -12 -9 -18 -26 -18 -19 0 -23 4 -19 18 4 13 3 13 -7 -3
-12 -19 -12 -19 -20 0 -7 17 -8 18 -8 3z m19 -38 c0 -5 -4 -10 -10 -10 -5 0
-10 5 -10 10 0 6 5 10 10 10 6 0 10 -4 10 -10z"/>
<path d="M1761 602 c-1 -7 -5 -11 -9 -8 -5 3 -9 -1 -9 -9 0 -23 26 -26 38 -3
7 12 7 18 1 14 -6 -3 -13 0 -15 6 -4 10 -6 10 -6 0z"/>
<path d="M1911 602 c-1 -7 -5 -11 -9 -8 -4 2 -8 -4 -8 -14 0 -10 4 -16 8 -14
4 3 8 0 8 -6 0 -7 5 -7 13 2 14 13 19 41 6 32 -4 -2 -10 2 -12 8 -4 10 -6 10
-6 0z"/>
<path d="M1991 602 c-1 -7 -6 -10 -11 -7 -6 4 -6 -4 1 -19 9 -18 14 -22 24
-13 13 12 17 39 4 31 -4 -2 -10 2 -12 8 -4 10 -6 10 -6 0z"/>
<path d="M2071 602 c-1 -7 -6 -10 -12 -6 -9 5 3 -28 16 -44 1 -1 7 9 13 24 7
14 8 23 3 20 -5 -4 -12 0 -14 6 -4 10 -6 10 -6 0z"/>
<path d="M2151 602 c-1 -7 -5 -11 -9 -8 -5 3 -9 -1 -9 -9 0 -23 26 -26 38 -3
7 12 7 18 1 14 -6 -3 -13 0 -15 6 -4 10 -6 10 -6 0z"/>
<path d="M2231 602 c-1 -7 -5 -11 -9 -8 -5 3 -9 -1 -9 -9 0 -23 26 -26 38 -3
7 12 7 18 1 14 -6 -3 -13 0 -15 6 -4 10 -6 10 -6 0z"/>
<path d="M2300 580 c0 -16 5 -30 10 -30 6 0 10 14 10 30 0 17 -4 30 -10 30 -5
0 -10 -13 -10 -30z"/>
<path d="M2382 580 c0 -19 2 -27 5 -17 2 9 2 25 0 35 -3 9 -5 1 -5 -18z"/>
<path d="M1351 576 c-9 -11 -6 -12 14 -8 14 2 22 8 19 13 -8 13 -20 11 -33 -5z"/>
<path d="M1825 580 c-3 -5 3 -10 15 -10 12 0 18 5 15 10 -3 6 -10 10 -15 10
-5 0 -12 -4 -15 -10z"/>
<path d="M2610 580 c0 -5 5 -10 10 -10 6 0 10 5 10 10 0 6 -4 10 -10 10 -5 0
-10 -4 -10 -10z"/>
<path d="M2448 563 c12 -2 30 -2 40 0 9 3 -1 5 -23 4 -22 0 -30 -2 -17 -4z"/>
<path d="M2670 563 c0 -5 15 -9 33 -10 26 -1 28 0 12 7 -26 11 -45 12 -45 3z"/>
<path d="M2448 543 c12 -2 30 -2 40 0 9 3 -1 5 -23 4 -22 0 -30 -2 -17 -4z"/>
<path d="M500 530 c0 -5 5 -10 10 -10 6 0 10 5 10 10 0 6 -4 10 -10 10 -5 0
-10 -4 -10 -10z"/>
<path d="M737 521 c-4 -17 -3 -21 5 -13 5 5 8 16 6 23 -3 8 -7 3 -11 -10z"/>
<path d="M2537 521 c-4 -17 -3 -21 5 -13 5 5 8 16 6 23 -3 8 -7 3 -11 -10z"/>
<path d="M2610 530 c0 -5 5 -10 10 -10 6 0 10 5 10 10 0 6 -4 10 -10 10 -5 0
-10 -4 -10 -10z"/>
<path d="M970 430 c0 -16 5 -30 10 -30 6 0 10 14 10 30 0 17 -4 30 -10 30 -5
0 -10 -13 -10 -30z"/>
<path d="M1052 430 c0 -19 2 -27 5 -17 2 9 2 25 0 35 -3 9 -5 1 -5 -18z"/>
<path d="M1132 430 c0 -19 2 -27 5 -17 2 9 2 25 0 35 -3 9 -5 1 -5 -18z"/>
<path d="M1211 452 c-1 -7 -6 -10 -12 -6 -9 5 3 -28 16 -44 1 -1 7 9 13 24 7
14 8 23 3 20 -5 -4 -12 0 -14 6 -4 10 -6 10 -6 0z"/>
<path d="M1291 452 c-1 -7 -5 -11 -9 -8 -5 3 -9 -1 -9 -9 0 -23 26 -26 38 -3
7 12 7 18 1 14 -6 -3 -13 0 -15 6 -4 10 -6 10 -6 0z"/>
<path d="M1521 452 c-1 -7 -6 -10 -11 -7 -6 4 -6 -4 1 -19 9 -18 14 -22 24
-13 13 12 17 39 4 31 -4 -2 -10 2 -12 8 -4 10 -6 10 -6 0z"/>
<path d="M1601 452 c-1 -7 -5 -11 -9 -8 -13 8 -10 -19 3 -31 10 -9 15 -5 24
13 6 14 7 23 2 20 -5 -4 -12 0 -14 6 -4 10 -6 10 -6 0z"/>
<path d="M1681 452 c-1 -7 -5 -11 -9 -8 -5 3 -9 -1 -9 -9 0 -23 26 -26 38 -3
7 12 7 18 1 14 -6 -3 -13 0 -15 6 -4 10 -6 10 -6 0z"/>
<path d="M1761 452 c-1 -7 -5 -11 -9 -8 -13 8 -10 -19 3 -31 10 -9 15 -5 24
13 6 14 7 23 2 20 -5 -4 -12 0 -14 6 -4 10 -6 10 -6 0z"/>
<path d="M1911 452 c-1 -7 -5 -11 -9 -8 -4 2 -8 -4 -8 -14 0 -10 4 -16 8 -14
4 3 8 0 8 -6 0 -7 5 -7 13 2 14 13 19 41 6 32 -4 -2 -10 2 -12 8 -4 10 -6 10
-6 0z"/>
<path d="M1992 430 c0 -19 2 -27 5 -17 2 9 2 25 0 35 -3 9 -5 1 -5 -18z"/>
<path d="M2072 430 c0 -19 2 -27 5 -17 2 9 2 25 0 35 -3 9 -5 1 -5 -18z"/>
<path d="M2152 430 c0 -19 2 -27 5 -17 2 9 2 25 0 35 -3 9 -5 1 -5 -18z"/>
<path d="M1355 430 c-3 -5 3 -10 15 -10 12 0 18 5 15 10 -3 6 -10 10 -15 10
-5 0 -12 -4 -15 -10z"/>
<path d="M1435 430 c-3 -5 3 -10 15 -10 12 0 18 5 15 10 -3 6 -10 10 -15 10
-5 0 -12 -4 -15 -10z"/>
<path d="M1825 430 c-3 -5 3 -10 15 -10 12 0 18 5 15 10 -3 6 -10 10 -15 10
-5 0 -12 -4 -15 -10z"/>
<path d="M2380 430 c0 -5 5 -10 11 -10 5 0 7 5 4 10 -3 6 -8 10 -11 10 -2 0
-4 -4 -4 -10z"/>
<path d="M2460 430 c0 -5 5 -10 10 -10 6 0 10 5 10 10 0 6 -4 10 -10 10 -5 0
-10 -4 -10 -10z"/>
<path d="M557 413 c-3 -5 11 -9 31 -10 29 -1 33 0 17 7 -26 11 -43 12 -48 3z"/>
<path d="M808 413 c12 -2 30 -2 40 0 9 3 -1 5 -23 4 -22 0 -30 -2 -17 -4z"/>
<path d="M883 413 c9 -2 25 -2 35 0 9 3 1 5 -18 5 -19 0 -27 -2 -17 -5z"/>
<path d="M2218 413 c12 -2 30 -2 40 0 9 3 -1 5 -23 4 -22 0 -30 -2 -17 -4z"/>
<path d="M2293 413 c9 -2 25 -2 35 0 9 3 1 5 -18 5 -19 0 -27 -2 -17 -5z"/>
<path d="M2538 403 c7 -3 16 -2 19 1 4 3 -2 6 -13 5 -11 0 -14 -3 -6 -6z"/>
<path d="M808 393 c12 -2 30 -2 40 0 9 3 -1 5 -23 4 -22 0 -30 -2 -17 -4z"/>
<path d="M883 393 c9 -2 25 -2 35 0 9 3 1 5 -18 5 -19 0 -27 -2 -17 -5z"/>
<path d="M2218 393 c12 -2 30 -2 40 0 9 3 -1 5 -23 4 -22 0 -30 -2 -17 -4z"/>
<path d="M2293 393 c9 -2 25 -2 35 0 9 3 1 5 -18 5 -19 0 -27 -2 -17 -5z"/>
<path d="M2380 380 c0 -5 5 -10 11 -10 5 0 7 5 4 10 -3 6 -8 10 -11 10 -2 0
-4 -4 -4 -10z"/>
<path d="M2460 380 c0 -5 5 -10 10 -10 6 0 10 5 10 10 0 6 -4 10 -10 10 -5 0
-10 -4 -10 -10z"/>
<path d="M2140 280 c0 -5 5 -10 10 -10 6 0 10 5 10 10 0 6 -4 10 -10 10 -5 0
-10 -4 -10 -10z"/>
<path d="M1050 269 c0 -5 5 -7 10 -4 6 3 10 8 10 11 0 2 -4 4 -10 4 -5 0 -10
-5 -10 -11z"/>
<path d="M1910 269 c0 -5 5 -7 10 -4 6 3 10 8 10 11 0 2 -4 4 -10 4 -5 0 -10
-5 -10 -11z"/>
<path d="M1990 269 c0 -5 5 -7 10 -4 6 3 10 8 10 11 0 2 -4 4 -10 4 -5 0 -10
-5 -10 -11z"/>
<path d="M885 260 c11 -5 27 -9 35 -9 9 0 8 4 -5 9 -11 5 -27 9 -35 9 -9 0 -8
-4 5 -9z"/>
<path d="M965 260 c11 -5 27 -9 35 -9 9 0 8 4 -5 9 -11 5 -27 9 -35 9 -9 0 -8
-4 5 -9z"/>
<path d="M1278 263 c12 -2 30 -2 40 0 9 3 -1 5 -23 4 -22 0 -30 -2 -17 -4z"/>
<path d="M1353 263 c9 -2 25 -2 35 0 9 3 1 5 -18 5 -19 0 -27 -2 -17 -5z"/>
<path d="M1433 263 c9 -2 25 -2 35 0 9 3 1 5 -18 5 -19 0 -27 -2 -17 -5z"/>
<path d="M1508 263 c12 -2 30 -2 40 0 9 3 -1 5 -23 4 -22 0 -30 -2 -17 -4z"/>
<path d="M1588 263 c12 -2 30 -2 40 0 9 3 -1 5 -23 4 -22 0 -30 -2 -17 -4z"/>
<path d="M1668 263 c12 -2 30 -2 40 0 9 3 -1 5 -23 4 -22 0 -30 -2 -17 -4z"/>
<path d="M1748 263 c12 -2 30 -2 40 0 9 3 -1 5 -23 4 -22 0 -30 -2 -17 -4z"/>
<path d="M1823 263 c9 -2 25 -2 35 0 9 3 1 5 -18 5 -19 0 -27 -2 -17 -5z"/>
<path d="M2200 263 c0 -5 15 -9 33 -10 26 -1 28 0 12 7 -26 11 -45 12 -45 3z"/>
<path d="M2298 253 c6 -2 18 -2 25 0 6 3 1 5 -13 5 -14 0 -19 -2 -12 -5z"/>
<path d="M1278 243 c12 -2 30 -2 40 0 9 3 -1 5 -23 4 -22 0 -30 -2 -17 -4z"/>
<path d="M1353 243 c9 -2 25 -2 35 0 9 3 1 5 -18 5 -19 0 -27 -2 -17 -5z"/>
<path d="M1433 243 c9 -2 25 -2 35 0 9 3 1 5 -18 5 -19 0 -27 -2 -17 -5z"/>
<path d="M1508 243 c12 -2 30 -2 40 0 9 3 -1 5 -23 4 -22 0 -30 -2 -17 -4z"/>
<path d="M1588 243 c12 -2 30 -2 40 0 9 3 -1 5 -23 4 -22 0 -30 -2 -17 -4z"/>
<path d="M1668 243 c12 -2 30 -2 40 0 9 3 -1 5 -23 4 -22 0 -30 -2 -17 -4z"/>
<path d="M1748 243 c12 -2 30 -2 40 0 9 3 -1 5 -23 4 -22 0 -30 -2 -17 -4z"/>
<path d="M1823 243 c9 -2 25 -2 35 0 9 3 1 5 -18 5 -19 0 -27 -2 -17 -5z"/>
<path d="M817 234 c-4 -4 -7 -14 -7 -23 0 -11 3 -12 11 -4 6 6 10 16 7 23 -2
6 -7 8 -11 4z"/>
<path d="M1047 220 c-3 -11 -2 -20 3 -20 12 0 21 28 11 35 -5 2 -11 -4 -14
-15z"/>
<path d="M1126 224 c-4 -9 -4 -19 -1 -22 2 -3 7 3 11 12 4 9 4 19 1 22 -2 3
-7 -3 -11 -12z"/>
<path d="M1207 221 c-4 -17 -3 -21 5 -13 5 5 8 16 6 23 -3 8 -7 3 -11 -10z"/>
<path d="M1907 220 c-3 -11 -2 -20 3 -20 12 0 21 28 11 35 -5 2 -11 -4 -14
-15z"/>
<path d="M1987 220 c-3 -11 -2 -20 3 -20 12 0 21 28 11 35 -5 2 -11 -4 -14
-15z"/>
<path d="M2067 221 c-4 -17 -3 -21 5 -13 5 5 8 16 6 23 -3 8 -7 3 -11 -10z"/>
<path d="M2140 230 c0 -5 5 -10 10 -10 6 0 10 5 10 10 0 6 -4 10 -10 10 -5 0
-10 -4 -10 -10z"/>
<path d="M2380 230 c0 -5 5 -10 10 -10 6 0 10 5 10 10 0 6 -4 10 -10 10 -5 0
-10 -4 -10 -10z"/>
<path d="M1991 152 c-1 -7 -6 -10 -11 -7 -6 4 -6 -4 1 -19 9 -18 14 -22 24
-13 13 12 17 39 4 31 -4 -2 -10 2 -12 8 -4 10 -6 10 -6 0z"/>
<path d="M2071 115 c-29 -65 -26 -71 5 -12 14 27 23 51 21 54 -3 2 -15 -17
-26 -42z"/>
<path d="M1278 103 c6 -2 18 -2 25 0 6 3 1 5 -13 5 -14 0 -19 -2 -12 -5z"/>
<path d="M1358 103 c6 -2 18 -2 25 0 6 3 1 5 -13 5 -14 0 -19 -2 -12 -5z"/>
<path d="M1438 103 c6 -2 18 -2 25 0 6 3 1 5 -13 5 -14 0 -19 -2 -12 -5z"/>
<path d="M1518 103 c7 -3 16 -2 19 1 4 3 -2 6 -13 5 -11 0 -14 -3 -6 -6z"/>
<path d="M1598 103 c7 -3 16 -2 19 1 4 3 -2 6 -13 5 -11 0 -14 -3 -6 -6z"/>
<path d="M1668 103 c6 -2 18 -2 25 0 6 3 1 5 -13 5 -14 0 -19 -2 -12 -5z"/>
<path d="M1748 103 c6 -2 18 -2 25 0 6 3 1 5 -13 5 -14 0 -19 -2 -12 -5z"/>
<path d="M1828 103 c6 -2 18 -2 25 0 6 3 1 5 -13 5 -14 0 -19 -2 -12 -5z"/>
<path d="M1050 80 c0 -5 5 -10 10 -10 6 0 10 5 10 10 0 6 -4 10 -10 10 -5 0
-10 -4 -10 -10z"/>
<path d="M1206 74 c-4 -9 -4 -19 -1 -22 2 -3 7 3 11 12 4 9 4 19 1 22 -2 3 -7
-3 -11 -12z"/>
<path d="M1907 70 c-3 -11 -2 -20 3 -20 12 0 21 28 11 35 -5 2 -11 -4 -14 -15z"/>
</g>
</svg>
